<?xml version="1.0" encoding="UTF-8" standalone="no"?>
<!-- Created with Inkscape (http://www.inkscape.org/) -->

<svg
   xmlns:dc="http://purl.org/dc/elements/1.1/"
   xmlns:cc="http://creativecommons.org/ns#"
   xmlns:rdf="http://www.w3.org/1999/02/22-rdf-syntax-ns#"
   xmlns:svg="http://www.w3.org/2000/svg"
   xmlns="http://www.w3.org/2000/svg"
   xmlns:inkscape="http://www.inkscape.org/namespaces/inkscape"
   version="1.1"
   width="138.1875"
   height="268.48749"
   id="logo"
   xml:space="preserve"><metadata
     id="metadata8"><rdf:RDF><cc:Work
         rdf:about=""><dc:format>image/svg+xml</dc:format><dc:type
           rdf:resource="http://purl.org/dc/dcmitype/StillImage" /></cc:Work></rdf:RDF></metadata><defs
     id="defs6"><clipPath
       id="clipPath18"><path
         d="M 0,2147.92 0,0 l 1105.51,0 0,2147.92 -1105.51,0 z"
         inkscape:connector-curvature="0"
         id="path20" /></clipPath></defs><g
     transform="matrix(1.25,0,0,-1.25,0,268.4875)"
     id="g10"><g
       transform="scale(0.1,0.1)"
       id="g12"><g
         id="g14"><g
           clip-path="url(#clipPath18)"
           id="g16"><path
             d="m 347.07,976.84 0,55.14 23.66,0 0,-8.35 -15.347,0 0,-15.04 11.211,0 0,-8.36 -11.211,0 0,-15.039 15.347,0 0,-8.351 -23.66,0"
             inkscape:connector-curvature="0"
             id="path22"
             style="fill:#CEE7F8;fill-opacity:1;fill-rule:nonzero;stroke:none" /><path
             d="m 397.336,976.84 8.30078,0 0,55.1016 -8.30078,0 0,-55.1016 z"
             inkscape:connector-curvature="0"
             id="path24"
             style="fill:#CEE7F8;fill-opacity:1;fill-rule:nonzero;stroke:none" /><path
             d="m 460.945,990.559 c 0.063,-3.848 -0.933,-7.129 -2.984,-9.848 -1.352,-1.852 -3.254,-3.16 -5.727,-3.922 -1.304,-0.41 -2.847,-0.609 -4.605,-0.609 -3.266,0 -5.957,0.8 -8.098,2.41 -1.789,1.32 -3.203,3.121 -4.25,5.39 -1.035,2.27 -1.636,4.879 -1.812,7.809 l 7.91,0.57 c 0.351,-3.211 1.199,-5.539 2.559,-6.98 0.996,-1.09 2.124,-1.609 3.417,-1.547 1.825,0.059 3.282,0.949 4.356,2.68 0.562,0.847 0.84,2.07 0.84,3.66 0,2.289 -1.035,4.558 -3.125,6.816 -1.645,1.551 -4.106,3.892 -7.383,7.002 -2.758,2.67 -4.707,5.06 -5.859,7.17 -1.235,2.38 -1.836,4.96 -1.836,7.75 0,5.02 1.675,8.82 5.054,11.4 2.075,1.56 4.66,2.33 7.739,2.33 2.964,0 5.496,-0.66 7.617,-1.98 1.637,-1.02 2.969,-2.46 3.972,-4.31 1.004,-1.84 1.622,-3.97 1.829,-6.37 l -7.969,-1.45 c -0.235,2.26 -0.879,4.01 -1.938,5.27 -0.757,0.91 -1.851,1.37 -3.297,1.37 -1.527,0 -2.675,-0.68 -3.468,-2.03 -0.657,-1.08 -0.965,-2.43 -0.965,-4.04 0,-2.52 1.082,-5.09 3.25,-7.7 0.82,-0.99 2.051,-2.17 3.699,-3.51 1.938,-1.62 3.203,-2.75 3.828,-3.39 2.055,-2.05 3.637,-4.08 4.746,-6.07 0.532,-0.938 0.957,-1.801 1.274,-2.59 0.801,-1.969 1.211,-3.731 1.226,-5.281"
             inkscape:connector-curvature="0"
             id="path26"
             style="fill:#CEE7F8;fill-opacity:1;fill-rule:nonzero;stroke:none" /><path
             d="m 497.043,976.84 -8.313,0 0,55.14 23.665,0 0,-8.35 -15.352,0 0,-15.04 11.211,0 0,-8.36 -11.211,0 0,-23.39"
             inkscape:connector-curvature="0"
             id="path28"
             style="fill:#CEE7F8;fill-opacity:1;fill-rule:nonzero;stroke:none" /><path
             d="m 547.078,1019.32 -3.086,-21.73 6.164,0 -3.078,21.73 z m -4.375,-29.82 -2.012,-12.66 -8.648,0 9.363,55.1 11.438,0 9.234,-55.1 -8.75,0 -1.933,12.66 -8.692,0"
             inkscape:connector-curvature="0"
             id="path30"
             style="fill:#CEE7F8;fill-opacity:1;fill-rule:nonzero;stroke:none" /><path
             d="m 598.918,985.059 3.477,0 c 2.808,0 4.761,1.453 5.847,4.351 0.379,1 0.574,2.141 0.574,3.43 0,3.082 -0.586,5.32 -1.754,6.73 -1.054,1.29 -2.621,1.94 -4.667,1.94 l -3.477,0 0,-16.451 z m 0,24.411 3.477,0 c 2.578,0 4.316,1.26 5.195,3.78 0.308,0.94 0.476,2.1 0.476,3.47 0,2.29 -0.554,4.02 -1.671,5.19 -1.036,1.09 -2.364,1.63 -4,1.63 l -3.477,0 0,-14.07 z m -8.969,-32.63 0,55.14 12.446,0 c 3.281,0 6.25,-0.86 8.882,-2.59 2.258,-1.47 3.868,-3.74 4.844,-6.82 0.527,-1.64 0.781,-3.59 0.781,-5.85 0,-3.69 -0.972,-6.65 -2.949,-8.88 -0.816,-0.94 -1.773,-1.66 -2.891,-2.16 1.836,-0.7 3.411,-2.09 4.708,-4.17 0.839,-1.41 1.476,-3.229 1.886,-5.459 0.203,-1.141 0.305,-2.41 0.305,-3.821 0,-3.488 -0.656,-6.449 -1.977,-8.89 -1.035,-1.899 -2.476,-3.43 -4.351,-4.57 -2.113,-1.29 -4.211,-1.93 -6.289,-1.93 l -15.395,0"
             inkscape:connector-curvature="0"
             id="path32"
             style="fill:#CEE7F8;fill-opacity:1;fill-rule:nonzero;stroke:none" /><path
             d="m 664.133,1018.66 c 0,3.2 -1.582,4.79 -4.758,4.79 l -5.012,0 0,-17.63 5.012,0 c 1.316,0 2.441,0.46 3.367,1.41 0.918,0.93 1.391,2.06 1.391,3.38 l 0,8.05 z m -4.985,13.28 c 4.641,0 8.047,-1.28 10.215,-3.82 1.899,-2.24 2.856,-5.34 2.856,-9.33 l 0,-8 c 0,-3.91 -1.489,-7.2 -4.438,-9.9 l 6.157,-24.05 -8.989,0 -5.047,20.75 c -0.234,0 -0.476,0 -0.754,0 l -4.785,0 0,-20.75 -8.316,0 0,55.1 13.101,0"
             inkscape:connector-curvature="0"
             id="path34"
             style="fill:#CEE7F8;fill-opacity:1;fill-rule:nonzero;stroke:none" /><path
             d="m 701.934,976.84 8.30859,0 0,55.1016 -8.30859,0 0,-55.1016 z"
             inkscape:connector-curvature="0"
             id="path36"
             style="fill:#CEE7F8;fill-opacity:1;fill-rule:nonzero;stroke:none" /><path
             d="m 746.863,994.32 0,-17.48 -8.301,0 0,55.14 8.301,0 0,-19.66 10.168,19.66 8.86,0 -11.371,-22.49 13.339,-32.65 -9.773,0 -8.723,22.379 -2.5,-4.899"
             inkscape:connector-curvature="0"
             id="path38"
             style="fill:#CEE7F8;fill-opacity:1;fill-rule:nonzero;stroke:none" /><path
             d="m 0,889.391 1077.17,0 0,36.8516 -1077.17,0 0,-36.8516 z"
             inkscape:connector-curvature="0"
             id="path40"
             style="fill:#CEE7F8;fill-opacity:1;fill-rule:evenodd;stroke:none" /><path
             d="m 0,0 1077.17,0 0,45.3516 L 0,45.3516 0,0 z"
             inkscape:connector-curvature="0"
             id="path42"
             style="fill:#CEE7F8;fill-opacity:1;fill-rule:evenodd;stroke:none" /><path
             d="m 0,1073.61 1077.17,0 0,14.1719 -1077.17,0 0,-14.1719 z"
             inkscape:connector-curvature="0"
             id="path44"
             style="fill:#CEE7F8;fill-opacity:1;fill-rule:nonzero;stroke:none" /><path
             d="m 178.152,1379.29 c -49.492,0 -91.5582,17.41 -126.1872,52.25 C 17.3164,1466.36 0,1508.12 0,1556.81 l 0,406.08 c 0,49.47 17.4102,91.52 52.2578,126.16 34.832,34.63 76.7972,51.95 125.8942,51.95 49.477,0 91.45,-17.43 125.891,-52.25 34.441,-34.83 51.66,-76.79 51.66,-125.86 l 0,-84.9 -116.387,0 0,87.28 c 0,17.8 -6.336,33.03 -19.004,45.71 -12.675,12.66 -27.91,19 -45.734,19 -17.808,0 -32.945,-6.34 -45.418,-19 -12.472,-12.68 -18.699,-27.91 -18.699,-45.71 l 0,-407.28 c 0,-17.81 6.227,-32.95 18.699,-45.42 12.473,-12.46 27.61,-18.7 45.418,-18.7 17.824,0 33.059,6.22 45.734,18.64 12.668,12.44 19.004,27.54 19.004,45.3 l 0,146.23 -62.351,0 0,112.8 178.738,0 0,-260.03 c 0,-49.49 -17.422,-91.44 -52.258,-125.87 -34.84,-34.44 -76.597,-51.65 -125.293,-51.65"
             inkscape:connector-curvature="0"
             id="path46"
             style="fill:#CEE7F8;fill-opacity:1;fill-rule:nonzero;stroke:none" /><path
             d="m 571.086,1962.3 -41.574,-293.29 83.144,0 -41.57,293.29 z m -58.957,-402.53 -27.266,-170.99 -116.875,0 126.504,743.91 154.387,0 124.695,-743.91 -118.008,0 -26.257,170.99 -117.18,0"
             inkscape:connector-curvature="0"
             id="path48"
             style="fill:#CEE7F8;fill-opacity:1;fill-rule:nonzero;stroke:none" /><path
             d="m 806.848,2048.38 c 0,55.15 44.39,99.54 99.558,99.54 l 199.104,0 0,-105.21 -193.44,0 0,-325.21 143.66,0 0,-99.54 -143.66,0 0,-430.41 -105.222,0 0,860.83"
             inkscape:connector-curvature="0"
             id="path50"
             style="fill:#CEE7F8;fill-opacity:1;fill-rule:nonzero;stroke:none" /><path
             d="m 116.777,685.059 c -2.312,0 -5.039,0.203 -13.015,0.203 l 0,-3.364 c 0,-29.179 -19.3167,-45.757 -43.8909,-45.757 -29.5977,0 -50.39063,27.918 -50.39063,69.07 0,41.359 22.26563,69.289 49.34763,69.289 15.1172,0 24.7735,-7.98 32.3321,-16.168 3.1445,0.629 5.2539,3.566 5.2539,11.758 0,0.629 0,2.109 1.6836,2.109 2.0903,0 2.0903,-1.269 2.0903,-2.109 l 0,-42.199 c 0,-1.039 -0.4107,-2.309 -1.8872,-2.309 -1.8867,0 -1.8867,1.27 -1.8867,2.309 0,23.308 -17.4297,41.359 -35.9063,41.359 -22.039,0 -34.8516,-16.16 -34.8516,-64.039 0,-47.66 12.379,-63.82 35.8946,-63.82 22.6758,0 27.7187,21.828 27.7187,39.668 l 0,4.203 c -8.8086,0 -10.9218,-0.203 -13.0078,-0.203 -0.8437,0 -1.8984,0.839 -1.8984,2.312 0,1.469 1.0547,2.309 1.8984,2.309 2.5195,0 5.2422,-0.629 17.418,-0.629 l 5.8789,0 c 11.9724,0 14.6994,0.629 17.2184,0.629 1.043,0 1.883,-0.84 1.883,-2.309 0,-1.473 -0.84,-2.312 -1.883,-2.312"
             inkscape:connector-curvature="0"
             id="path52"
             style="fill:#CEE7F8;fill-opacity:1;fill-rule:nonzero;stroke:none" /><path
             d="m 169.91,749.52 -21.211,-62.989 41.582,0 -20.371,62.989 z m 63.828,-111.7 c -2.515,0 -6.297,0.629 -18.472,0.629 l -5.254,0 c -11.965,0 -15.957,-0.629 -18.266,-0.629 -1.055,0 -1.891,0.84 -1.891,2.309 0,1.262 0.836,2.101 1.891,2.101 2.102,0 5.664,0 12.816,0 l -12.597,38.829 -44.945,0 -13.219,-38.829 2.937,0 c 7.981,0 11.758,0 14.074,0 0.836,0 1.883,-0.839 1.883,-2.101 0,-1.469 -1.047,-2.309 -1.883,-2.309 -2.523,0 -6.515,0.629 -18.476,0.629 l -0.844,0 c -12.183,0 -15.957,-0.629 -18.472,-0.629 -0.84,0 -1.899,0.84 -1.899,2.309 0,1.262 1.059,2.101 1.899,2.101 2.085,0 5.242,0 14.058,0 l 1.262,0 44.305,132.059 c 0.625,1.051 0.839,1.68 2.304,1.68 1.465,0 1.899,-0.629 2.102,-1.68 L 219.883,642.23 c 8.816,0 11.555,0 13.855,0 0.84,0 1.899,-0.839 1.899,-2.101 0,-1.469 -1.059,-2.309 -1.899,-2.309"
             inkscape:connector-curvature="0"
             id="path54"
             style="fill:#CEE7F8;fill-opacity:1;fill-rule:nonzero;stroke:none" /><path
             d="m 322.156,646.012 0,-6.301 c 0,-1.68 -0.84,-2.731 -1.89,-2.731 -1.68,0 -7.141,0.84 -10.5,0.84 l -52.704,0.629 c -12.167,0 -15.957,-0.629 -18.476,-0.629 -1.047,0 -1.887,0.84 -1.887,2.309 0,1.262 0.84,2.101 1.887,2.101 2.105,0 5.035,0 14.07,0 l 0,126.809 c -9.035,0 -10.918,0 -13.015,0 -0.84,0 -1.899,0.84 -1.899,2.102 0,1.468 1.059,2.308 1.899,2.308 2.515,0 5.254,-0.629 17.421,-0.629 l 5.672,0 c 11.961,0 14.911,0.629 17.43,0.629 0.844,0 1.887,-0.84 1.887,-2.308 0,-1.262 -1.043,-2.102 -1.887,-2.102 -2.312,0 -5.035,0 -13.023,0 l 0,-126.18 34.644,0 c 12.387,0 17.219,10.922 17.219,28.34 0,1.063 0.637,2.102 2.101,2.102 1.461,0 2.098,-1.039 2.098,-2.102 0,-2.097 -1.047,-16.578 -1.047,-25.187"
             inkscape:connector-curvature="0"
             id="path56"
             style="fill:#CEE7F8;fill-opacity:1;fill-rule:nonzero;stroke:none" /><path
             d="m 417.285,646.219 0,-6.508 c 0,-1.68 -0.84,-2.731 -1.68,-2.731 -1.882,0 -7.558,0.84 -10.71,0.84 l -54.165,0.629 c -12.183,0 -15.957,-0.629 -18.472,-0.629 -1.059,0 -1.899,0.84 -1.899,2.309 0,1.262 0.84,2.101 1.899,2.101 2.09,0 5.039,0 14.058,0 l 0,126.809 c -9.019,0 -11.968,0 -14.058,0 -1.059,0 -1.899,0.84 -1.899,2.102 0,1.468 0.84,2.308 1.899,2.308 2.515,0 6.289,-0.629 18.472,-0.629 l 49.551,0.418 c 3.149,0 8.813,1.051 10.489,1.051 1.054,0 1.898,-1.051 1.898,-2.73 l 0,-6.297 c 0,-8.614 1.055,-23.09 1.055,-25.192 0,-1.058 -0.637,-2.101 -2.114,-2.101 -1.464,0 -2.3,1.043 -2.3,2.101 0,17.422 -4.829,28.34 -17.219,28.34 l -31.278,0 0,-57.949 19.52,0 c 6.719,0 11.121,5.668 11.121,17.008 0,1.062 0.434,2.101 1.477,2.101 1.258,0 1.679,-1.039 1.679,-2.101 0,-1.887 -0.207,-5.66 -0.207,-19.528 0,-13.64 0.207,-17.64 0.207,-19.519 0,-1.051 -0.421,-2.32 -1.679,-2.32 -1.043,0 -1.477,1.269 -1.477,2.32 0,11.117 -4.402,17 -11.121,17 l -19.52,0 0,-62.563 36.114,0 c 12.383,0 17.207,10.922 17.207,28.34 0,1.063 0.84,2.102 2.105,2.102 1.465,0 2.09,-1.039 2.09,-2.102 0,-2.097 -1.043,-16.578 -1.043,-24.98"
             inkscape:connector-curvature="0"
             id="path58"
             style="fill:#CEE7F8;fill-opacity:1;fill-rule:nonzero;stroke:none" /><path
             d="m 469.16,768.41 c -2.519,0 -6.926,0 -6.926,0 l 0,-58.578 5.039,0 c 20.161,0 31.489,6.938 31.489,31.289 0,19.32 -6.926,27.289 -29.602,27.289 z m 51.652,-131.219 c -15.121,0 -18.898,11.551 -18.898,36.11 0,20.789 -5.461,31.91 -23.516,31.91 l -16.164,0 0,-62.981 c 7.969,0 11.758,0 14.067,0 1.054,0 1.89,-0.839 1.89,-2.101 0,-1.469 -0.836,-2.309 -1.89,-2.309 -2.524,0 -6.504,0.629 -18.481,0.629 l -5.664,0 c -12.183,0 -15.957,-0.629 -18.472,-0.629 -1.055,0 -1.899,0.84 -1.899,2.309 0,1.262 0.844,2.101 1.899,2.101 2.086,0 5.039,0 14.058,0 l 0,126.809 c -9.019,0 -11.972,0 -14.058,0 -1.055,0 -1.899,0.84 -1.899,2.102 0,1.468 0.844,2.308 1.899,2.308 2.515,0 6.289,-0.629 18.472,-0.629 10.918,0 10.703,0.219 18.481,0.219 30.015,0 43.875,-14.078 43.875,-32.348 0,-14.902 -12.176,-26.242 -24.153,-29.8 17.856,-3.582 26.672,-17.641 26.672,-37.59 0,-10.082 -1.047,-18.68 -1.047,-23.719 0,-4.41 1.684,-8.832 5.454,-8.832 3.359,0 5.874,2.32 5.874,7.148 0,1.684 1.055,3.141 2.739,3.141 1.465,0 2.73,-1.457 2.73,-2.93 0,-6.718 -5.672,-10.918 -11.969,-10.918"
             inkscape:connector-curvature="0"
             id="path60"
             style="fill:#CEE7F8;fill-opacity:1;fill-rule:nonzero;stroke:none" /><path
             d="m 582.98,637.82 c -2.316,0 -6.308,0.629 -18.273,0.629 l -5.879,0 c -12.18,0 -15.957,-0.629 -18.476,-0.629 -0.84,0 -1.883,0.84 -1.883,2.309 0,1.262 1.043,2.101 1.883,2.101 2.097,0 5.246,0 14.074,0 l 0,126.809 c -8.828,0 -11.977,0 -14.074,0 -0.84,0 -1.883,0.84 -1.883,2.102 0,1.468 1.043,2.308 1.883,2.308 2.519,0 6.296,-0.629 18.476,-0.629 l 5.879,0 c 11.965,0 15.957,0.629 18.273,0.629 1.043,0 1.883,-0.84 1.883,-2.308 0,-1.262 -0.84,-2.102 -1.883,-2.102 -2.316,0 -6.093,0 -14.074,0 l 0,-126.809 c 7.981,0 11.758,0 14.074,0 1.043,0 1.883,-0.839 1.883,-2.101 0,-1.469 -0.84,-2.309 -1.883,-2.309"
             inkscape:connector-curvature="0"
             id="path62"
             style="fill:#CEE7F8;fill-opacity:1;fill-rule:nonzero;stroke:none" /><path
             d="m 684.395,646.219 0,-6.508 c 0,-1.68 -0.84,-2.731 -1.68,-2.731 -1.887,0 -7.559,0.84 -10.711,0.84 l -54.16,0.629 c -12.192,0 -15.957,-0.629 -18.481,-0.629 -1.051,0 -1.89,0.84 -1.89,2.309 0,1.262 0.839,2.101 1.89,2.101 2.09,0 5.039,0 14.067,0 l 0,126.809 c -9.028,0 -11.977,0 -14.067,0 -1.051,0 -1.89,0.84 -1.89,2.102 0,1.468 0.839,2.308 1.89,2.308 2.524,0 6.289,-0.629 18.481,-0.629 l 49.551,0.418 c 3.14,0 8.804,1.051 10.488,1.051 1.055,0 1.89,-1.051 1.89,-2.73 l 0,-6.297 c 0,-8.614 1.055,-23.09 1.055,-25.192 0,-1.058 -0.633,-2.101 -2.105,-2.101 -1.465,0 -2.305,1.043 -2.305,2.101 0,17.422 -4.824,28.34 -17.219,28.34 l -31.277,0 0,-57.949 19.519,0 c 6.719,0 11.121,5.668 11.121,17.008 0,1.062 0.43,2.101 1.477,2.101 1.262,0 1.68,-1.039 1.68,-2.101 0,-1.887 -0.203,-5.66 -0.203,-19.528 0,-13.64 0.203,-17.64 0.203,-19.519 0,-1.051 -0.418,-2.32 -1.68,-2.32 -1.047,0 -1.477,1.269 -1.477,2.32 0,11.117 -4.402,17 -11.121,17 l -19.519,0 0,-62.563 36.109,0 c 12.387,0 17.207,10.922 17.207,28.34 0,1.063 0.84,2.102 2.114,2.102 1.46,0 2.086,-1.039 2.086,-2.102 0,-2.097 -1.043,-16.578 -1.043,-24.98"
             inkscape:connector-curvature="0"
             id="path64"
             style="fill:#CEE7F8;fill-opacity:1;fill-rule:nonzero;stroke:none" /><path
             d="m 843.152,737.969 c -1.464,0 -2.097,1.043 -2.097,2.101 0,17.422 -4.832,28.34 -17.215,28.34 l -34.652,0 0,-57.949 22.89,0 c 6.508,0 11.137,5.668 11.137,17.008 0,1.062 0.203,2.101 1.465,2.101 1.05,0 1.465,-1.039 1.465,-2.101 0,-1.887 -0.207,-5.66 -0.207,-19.528 0,-13.851 0.207,-17.64 0.207,-19.519 0,-1.051 -0.415,-2.32 -1.465,-2.32 -1.262,0 -1.465,1.269 -1.465,2.32 0,11.117 -4.629,17 -11.137,17 l -22.89,0 0,-63.192 c 7.992,0 10.714,0 13.031,0 0.84,0 1.883,-0.839 1.883,-2.101 0,-1.469 -1.043,-2.309 -1.883,-2.309 -2.524,0 -5.473,0.629 -17.434,0.629 l -5.676,0 c -12.168,0 -14.898,-0.629 -17.421,-0.629 -0.836,0 -1.891,0.84 -1.891,2.309 0,1.262 1.055,2.101 1.891,2.101 2.101,0 3.988,0 13.019,0 l 0,126.809 c -9.031,0 -11.965,0 -14.07,0 -1.047,0 -1.887,0.84 -1.887,2.102 0,1.468 0.84,2.308 1.887,2.308 2.515,0 6.304,-0.629 18.472,-0.629 l 52.707,0.418 c 3.36,0 8.821,1.051 10.496,1.051 1.055,0 1.899,-1.051 1.899,-2.73 l 0,-6.297 c 0,-8.614 1.043,-23.09 1.043,-25.192 0,-1.058 -0.637,-2.101 -2.102,-2.101"
             inkscape:connector-curvature="0"
             id="path66"
             style="fill:#CEE7F8;fill-opacity:1;fill-rule:nonzero;stroke:none" /><path
             d="m 920.652,785.211 c -3.992,0 -7.351,3.348 -7.351,7.348 0,4.203 3.359,7.562 7.351,7.562 3.989,0 7.344,-3.359 7.344,-7.562 0,-4 -3.355,-7.348 -7.344,-7.348 z m -31.289,0 c -4.195,0 -7.554,3.348 -7.554,7.348 0,4.203 3.359,7.562 7.554,7.562 3.989,0 7.348,-3.359 7.348,-7.562 0,-4 -3.359,-7.348 -7.348,-7.348 z m 66.133,-16.172 c -2.305,0 -5.242,0 -14.273,0 l -1.887,0 0,-95.738 c 0,-24.992 -17.844,-37.59 -38.43,-37.59 -20.562,0 -39.676,12.598 -39.676,37.59 l 0,95.738 c -9.035,0 -11.96,0 -14.074,0 -1.043,0 -1.883,0.84 -1.883,2.102 0,1.468 0.84,2.308 1.883,2.308 2.524,0 6.098,-0.629 18.274,-0.629 l 5.879,0 c 11.961,0 15.957,0.629 18.476,0.629 0.84,0 1.887,-0.84 1.887,-2.308 0,-1.262 -1.047,-2.102 -1.887,-2.102 -2.312,0 -6.086,0 -14.07,0 l 0,-99.519 c 0,-19.098 13.433,-27.5 29.187,-27.5 18.274,0 28.977,13.218 28.977,31.281 l 0,95.738 -2.102,0 c -7.976,0 -11.757,0 -14.074,0 -1.043,0 -1.883,0.84 -1.883,2.102 0,1.468 0.84,2.308 1.883,2.308 2.524,0 6.516,-0.629 18.481,-0.629 l 0.836,0 c 12.191,0 15.96,0.629 18.476,0.629 0.844,0 1.899,-0.84 1.899,-2.308 0,-1.262 -1.055,-2.102 -1.899,-2.102"
             inkscape:connector-curvature="0"
             id="path68"
             style="fill:#CEE7F8;fill-opacity:1;fill-rule:nonzero;stroke:none" /><path
             d="m 998.984,768.41 c -2.519,0 -6.922,0 -6.922,0 l 0,-58.578 5.04,0 c 20.158,0 31.478,6.938 31.478,31.289 0,19.32 -6.92,27.289 -29.596,27.289 z m 51.646,-131.219 c -15.11,0 -18.89,11.551 -18.89,36.11 0,20.789 -5.46,31.91 -23.52,31.91 l -16.158,0 0,-62.981 c 7.968,0 11.758,0 14.058,0 1.06,0 1.9,-0.839 1.9,-2.101 0,-1.469 -0.84,-2.309 -1.9,-2.309 -2.52,0 -6.503,0.629 -18.475,0.629 l -5.665,0 c -12.183,0 -15.957,-0.629 -18.472,-0.629 -1.059,0 -1.899,0.84 -1.899,2.309 0,1.262 0.84,2.101 1.899,2.101 2.09,0 5.039,0 14.058,0 l 0,126.809 c -9.019,0 -11.968,0 -14.058,0 -1.059,0 -1.899,0.84 -1.899,2.102 0,1.468 0.84,2.308 1.899,2.308 2.515,0 6.289,-0.629 18.472,-0.629 10.918,0 10.708,0.219 18.48,0.219 30.02,0 43.88,-14.078 43.88,-32.348 0,-14.902 -12.18,-26.242 -24.15,-29.8 17.85,-3.582 26.67,-17.641 26.67,-37.59 0,-10.082 -1.05,-18.68 -1.05,-23.719 0,-4.41 1.68,-8.832 5.45,-8.832 3.36,0 5.88,2.32 5.88,7.148 0,1.684 1.05,3.141 2.73,3.141 1.47,0 2.74,-1.457 2.74,-2.93 0,-6.718 -5.68,-10.918 -11.98,-10.918"
             inkscape:connector-curvature="0"
             id="path70"
             style="fill:#CEE7F8;fill-opacity:1;fill-rule:nonzero;stroke:none" /><path
             d="m 103.914,497.969 c -1.465,0 -2.098,1.043 -2.098,2.101 0,17.422 -4.8355,28.34 -17.2183,28.34 l -34.6446,0 0,-57.949 22.8907,0 c 6.5,0 11.1289,5.668 11.1289,17.008 0,1.062 0.207,2.101 1.4687,2.101 1.0508,0 1.4648,-1.039 1.4648,-2.101 0,-1.887 -0.207,-5.66 -0.207,-19.528 0,-13.851 0.207,-17.64 0.207,-19.519 0,-1.051 -0.414,-2.32 -1.4648,-2.32 -1.2617,0 -1.4687,1.269 -1.4687,2.32 0,11.117 -4.6289,17 -11.1289,17 l -22.8907,0 0,-63.192 c 7.9883,0 10.711,0 13.0235,0 0.8437,0 1.8867,-0.839 1.8867,-2.101 0,-1.469 -1.043,-2.309 -1.8867,-2.309 -2.5157,0 -5.4649,0.629 -17.4297,0.629 l -5.6758,0 c -12.1641,0 -14.9023,-0.629 -17.418,-0.629 -0.8437,0 -1.8984,0.84 -1.8984,2.309 0,1.262 1.0547,2.101 1.8984,2.101 2.0977,0 3.9805,0 13.0157,0 l 0,126.809 c -9.0352,0 -11.961,0 -14.0704,0 -1.0468,0 -1.8867,0.84 -1.8867,2.102 0,1.468 0.8399,2.308 1.8867,2.308 2.5157,0 6.3086,-0.629 18.4727,-0.629 l 52.707,0.418 c 3.3594,0 8.8169,1.051 10.4959,1.051 1.059,0 1.899,-1.051 1.899,-2.73 l 0,-6.297 c 0,-8.614 1.043,-23.09 1.043,-25.192 0,-1.058 -0.633,-2.101 -2.102,-2.101"
             inkscape:connector-curvature="0"
             id="path72"
             style="fill:#CEE7F8;fill-opacity:1;fill-rule:nonzero;stroke:none" /><path
             d="m 161.672,529.461 c -22.68,0 -34.856,-15.742 -34.856,-64.25 0,-48.289 12.176,-64.031 34.856,-64.031 22.676,0 34.851,15.742 34.851,64.031 0,48.508 -12.175,64.25 -34.851,64.25 z m 0,-133.32 c -27.934,0 -51.02,27.918 -51.02,69.07 0,41.359 23.086,69.289 51.02,69.289 27.93,0 50.808,-27.93 50.808,-69.289 0,-41.152 -22.878,-69.07 -50.808,-69.07"
             inkscape:connector-curvature="0"
             id="path74"
             style="fill:#CEE7F8;fill-opacity:1;fill-rule:nonzero;stroke:none" /><path
             d="m 314.07,497.969 c -1.472,0 -2.312,1.043 -2.312,2.101 0,17.422 -4.832,28.34 -17.219,28.34 l -19.527,0 0,-126.18 c 7.984,0 10.508,0 13.023,0 0.844,0 1.887,-0.839 1.887,-2.101 0,-1.469 -1.043,-2.309 -1.887,-2.309 -2.515,0 -5.469,0.629 -17.43,0.629 l -5.878,0 c -12.176,0 -14.7,-0.629 -17.215,-0.629 -1.059,0 -1.899,0.84 -1.899,2.309 0,1.262 0.84,2.101 1.899,2.101 2.097,0 3.98,0 13.015,0 l 0,126.18 -19.738,0 c -12.383,0 -17.215,-10.918 -17.215,-28.34 0,-1.058 -0.636,-2.101 -2.097,-2.101 -1.465,0 -2.102,1.043 -2.102,2.101 0,2.102 1.047,16.578 1.047,25.192 l 0,6.297 c 0,1.679 0.84,2.73 1.89,2.73 1.68,0 7.141,-1.051 10.5,-1.051 0,0 27.083,-0.629 34.852,-0.418 7.774,0 34.856,0.418 34.856,0.418 3.359,0 9.035,1.051 10.71,1.051 1.047,0 1.887,-1.051 1.887,-2.73 l 0,-6.297 c 0,-8.614 0.84,-23.09 0.84,-25.192 0,-1.058 -0.637,-2.101 -1.887,-2.101"
             inkscape:connector-curvature="0"
             id="path76"
             style="fill:#CEE7F8;fill-opacity:1;fill-rule:nonzero;stroke:none" /><path
             d="m 373.867,529.461 c -22.676,0 -34.851,-15.742 -34.851,-64.25 0,-48.289 12.175,-64.031 34.851,-64.031 22.676,0 34.856,15.742 34.856,64.031 0,48.508 -12.18,64.25 -34.856,64.25 z m 0,-133.32 c -27.922,0 -51.023,27.918 -51.023,69.07 0,41.359 23.101,69.289 51.023,69.289 27.918,0 50.813,-27.93 50.813,-69.289 0,-41.152 -22.895,-69.07 -50.813,-69.07"
             inkscape:connector-curvature="0"
             id="path78"
             style="fill:#CEE7F8;fill-opacity:1;fill-rule:nonzero;stroke:none" /><path
             d="m 549.211,445.059 c -2.309,0 -5.039,0.203 -13.02,0.203 l 0,-3.364 c 0,-29.179 -19.316,-45.757 -43.879,-45.757 -29.609,0 -50.386,27.918 -50.386,69.07 0,41.359 22.246,69.289 49.336,69.289 15.117,0 24.773,-7.98 32.332,-16.168 3.152,0.629 5.246,3.566 5.246,11.758 0,0.629 0,2.109 1.68,2.109 2.109,0 2.109,-1.269 2.109,-2.109 l 0,-42.199 c 0,-1.039 -0.434,-2.309 -1.899,-2.309 -1.89,0 -1.89,1.27 -1.89,2.309 0,23.308 -17.422,41.359 -35.902,41.359 -22.047,0 -34.852,-16.16 -34.852,-64.039 0,-47.66 12.394,-63.82 35.906,-63.82 22.68,0 27.719,21.828 27.719,39.668 l 0,4.203 c -8.828,0 -10.918,-0.203 -13.027,-0.203 -0.84,0 -1.887,0.839 -1.887,2.312 0,1.469 1.047,2.309 1.887,2.309 2.515,0 5.254,-0.629 17.429,-0.629 l 5.879,0 c 11.961,0 14.696,0.629 17.219,0.629 1.055,0 1.894,-0.84 1.894,-2.309 0,-1.473 -0.839,-2.312 -1.894,-2.312"
             inkscape:connector-curvature="0"
             id="path80"
             style="fill:#CEE7F8;fill-opacity:1;fill-rule:nonzero;stroke:none" /><path
             d="m 589.949,528.41 c -2.515,0 -6.929,0 -6.929,0 l 0,-58.578 5.039,0 c 20.156,0 31.503,6.938 31.503,31.289 0,19.32 -6.933,27.289 -29.613,27.289 z m 51.653,-131.219 c -15.118,0 -18.899,11.551 -18.899,36.11 0,20.789 -5.457,31.91 -23.515,31.91 l -16.168,0 0,-62.981 c 7.988,0 11.753,0 14.07,0 1.047,0 1.887,-0.839 1.887,-2.101 0,-1.469 -0.84,-2.309 -1.887,-2.309 -2.52,0 -6.516,0.629 -18.477,0.629 l -5.675,0 c -12.168,0 -15.958,-0.629 -18.473,-0.629 -1.047,0 -1.887,0.84 -1.887,2.309 0,1.262 0.84,2.101 1.887,2.101 2.105,0 5.039,0 14.07,0 l 0,126.809 c -9.031,0 -11.965,0 -14.07,0 -1.047,0 -1.887,0.84 -1.887,2.102 0,1.468 0.84,2.308 1.887,2.308 2.515,0 6.305,-0.629 18.473,-0.629 10.917,0 10.714,0.219 18.48,0.219 30.027,0 43.887,-14.078 43.887,-32.348 0,-14.902 -12.18,-26.242 -24.145,-29.8 17.844,-3.582 26.66,-17.641 26.66,-37.59 0,-10.082 -1.05,-18.68 -1.05,-23.719 0,-4.41 1.675,-8.832 5.464,-8.832 3.364,0 5.879,2.32 5.879,7.148 0,1.684 1.047,3.141 2.727,3.141 1.472,0 2.722,-1.457 2.722,-2.93 0,-6.718 -5.664,-10.918 -11.96,-10.918"
             inkscape:connector-curvature="0"
             id="path82"
             style="fill:#CEE7F8;fill-opacity:1;fill-rule:nonzero;stroke:none" /><path
             d="m 722.668,509.52 -21.215,-62.989 41.582,0 -20.367,62.989 z m 63.824,-111.7 c -2.515,0 -6.297,0.629 -18.472,0.629 l -5.254,0 c -11.965,0 -15.957,-0.629 -18.262,-0.629 -1.059,0 -1.899,0.84 -1.899,2.309 0,1.262 0.84,2.101 1.899,2.101 2.098,0 5.664,0 12.808,0 l -12.593,38.829 -44.946,0 -13.218,-38.829 2.937,0 c 7.981,0 11.758,0 14.07,0 0.84,0 1.887,-0.839 1.887,-2.101 0,-1.469 -1.047,-2.309 -1.887,-2.309 -2.515,0 -6.511,0.629 -18.472,0.629 l -0.844,0 c -12.184,0 -15.953,-0.629 -18.476,-0.629 -0.836,0 -1.891,0.84 -1.891,2.309 0,1.262 1.055,2.101 1.891,2.101 2.089,0 5.246,0 14.066,0 l 1.258,0 44.304,132.059 c 0.625,1.051 0.84,1.68 2.305,1.68 1.469,0 1.899,-0.629 2.102,-1.68 L 772.637,402.23 c 8.816,0 11.551,0 13.855,0 0.844,0 1.899,-0.839 1.899,-2.101 0,-1.469 -1.055,-2.309 -1.899,-2.309"
             inkscape:connector-curvature="0"
             id="path84"
             style="fill:#CEE7F8;fill-opacity:1;fill-rule:nonzero;stroke:none" /><path
             d="m 881.633,497.969 c -1.465,0 -2.102,1.043 -2.102,2.101 0,17.422 -4.836,28.34 -17.219,28.34 l -34.644,0 0,-57.949 22.891,0 c 6.503,0 11.129,5.668 11.129,17.008 0,1.062 0.207,2.101 1.464,2.101 1.059,0 1.465,-1.039 1.465,-2.101 0,-1.887 -0.203,-5.66 -0.203,-19.528 0,-13.851 0.203,-17.64 0.203,-19.519 0,-1.051 -0.406,-2.32 -1.465,-2.32 -1.257,0 -1.464,1.269 -1.464,2.32 0,11.117 -4.626,17 -11.129,17 l -22.891,0 0,-63.192 c 7.984,0 10.711,0 13.023,0 0.84,0 1.887,-0.839 1.887,-2.101 0,-1.469 -1.047,-2.309 -1.887,-2.309 -2.515,0 -5.464,0.629 -17.429,0.629 l -5.672,0 c -12.168,0 -14.902,-0.629 -17.422,-0.629 -0.844,0 -1.898,0.84 -1.898,2.309 0,1.262 1.054,2.101 1.898,2.101 2.098,0 3.98,0 13.016,0 l 0,126.809 c -9.036,0 -11.961,0 -14.075,0 -1.043,0 -1.882,0.84 -1.882,2.102 0,1.468 0.839,2.308 1.882,2.308 2.524,0 6.313,-0.629 18.481,-0.629 l 52.703,0.418 c 3.359,0 8.816,1.051 10.5,1.051 1.055,0 1.895,-1.051 1.895,-2.73 l 0,-6.297 c 0,-8.614 1.042,-23.09 1.042,-25.192 0,-1.058 -0.632,-2.101 -2.097,-2.101"
             inkscape:connector-curvature="0"
             id="path86"
             style="fill:#CEE7F8;fill-opacity:1;fill-rule:nonzero;stroke:none" /><path
             d="m 936.863,397.82 c -2.301,0 -6.289,0.629 -18.258,0.629 l -5.878,0 c -12.18,0 -15.957,-0.629 -18.481,-0.629 -0.84,0 -1.891,0.84 -1.891,2.309 0,1.262 1.051,2.101 1.891,2.101 2.102,0 5.258,0 14.066,0 l 0,126.809 c -8.808,0 -11.964,0 -14.066,0 -0.84,0 -1.891,0.84 -1.891,2.102 0,1.468 1.051,2.308 1.891,2.308 2.524,0 6.301,-0.629 18.481,-0.629 l 5.878,0 c 11.969,0 15.957,0.629 18.258,0.629 1.059,0 1.899,-0.84 1.899,-2.308 0,-1.262 -0.84,-2.102 -1.899,-2.102 -2.301,0 -6.082,0 -14.058,0 l 0,-126.809 c 7.976,0 11.757,0 14.058,0 1.059,0 1.899,-0.839 1.899,-2.101 0,-1.469 -0.84,-2.309 -1.899,-2.309"
             inkscape:connector-curvature="0"
             id="path88"
             style="fill:#CEE7F8;fill-opacity:1;fill-rule:nonzero;stroke:none" /><path
             d="m 1041.65,406.219 0,-6.508 c 0,-1.68 -0.84,-2.731 -1.68,-2.731 -1.89,0 -7.56,0.84 -10.7,0.84 l -54.18,0.629 c -12.168,0 -15.957,-0.629 -18.481,-0.629 -1.043,0 -1.882,0.84 -1.882,2.309 0,1.262 0.839,2.101 1.882,2.101 2.114,0 5.039,0 14.075,0 l 0,126.809 c -9.036,0 -11.961,0 -14.075,0 -1.043,0 -1.882,0.84 -1.882,2.102 0,1.468 0.839,2.308 1.882,2.308 2.524,0 6.313,-0.629 18.481,-0.629 l 49.55,0.418 c 3.15,0 8.83,1.051 10.51,1.051 1.04,0 1.88,-1.051 1.88,-2.73 l 0,-6.297 c 0,-8.614 1.05,-23.09 1.05,-25.192 0,-1.058 -0.63,-2.101 -2.09,-2.101 -1.48,0 -2.32,1.043 -2.32,2.101 0,17.422 -4.83,28.34 -17.21,28.34 l -31.292,0 0,-57.949 19.532,0 c 6.72,0 11.13,5.668 11.13,17.008 0,1.062 0.41,2.101 1.46,2.101 1.26,0 1.68,-1.039 1.68,-2.101 0,-1.887 -0.21,-5.66 -0.21,-19.528 0,-13.64 0.21,-17.64 0.21,-19.519 0,-1.051 -0.42,-2.32 -1.68,-2.32 -1.05,0 -1.46,1.269 -1.46,2.32 0,11.117 -4.41,17 -11.13,17 l -19.532,0 0,-62.563 36.112,0 c 12.39,0 17.23,10.922 17.23,28.34 0,1.063 0.84,2.102 2.09,2.102 1.47,0 2.11,-1.039 2.11,-2.102 0,-2.097 -1.06,-16.578 -1.06,-24.98"
             inkscape:connector-curvature="0"
             id="path90"
             style="fill:#CEE7F8;fill-opacity:1;fill-rule:nonzero;stroke:none" /><path
             d="m 44.8828,157.82 c -2.2539,0 -6.1445,0.629 -17.832,0.629 l -5.7305,0 c -11.88671,0 -15.57811,-0.629 -18.03905,-0.629 -0.82031,0 -1.84375,0.821 -1.84375,2.27 0,1.23 1.02344,2.039 1.84375,2.039 2.05078,0 5.125,0 13.73045,0 l 0,123.781 c -8.60545,0 -11.67967,0 -13.73045,0 -0.82031,0 -1.84375,0.82 -1.84375,2.051 0,1.418 1.02344,2.25 1.84375,2.25 2.46094,0 6.15234,-0.609 18.03905,-0.609 l 5.7305,0 c 11.6875,0 15.5781,0.609 17.832,0.609 1.0234,0 1.8438,-0.832 1.8438,-2.25 0,-1.231 -0.8204,-2.051 -1.8438,-2.051 -2.2539,0 -5.9375,0 -13.7305,0 l 0,-123.781 c 7.793,0 11.4766,0 13.7305,0 1.0234,0 1.8438,-0.809 1.8438,-2.039 0,-1.449 -0.8204,-2.27 -1.8438,-2.27"
             inkscape:connector-curvature="0"
             id="path92"
             style="fill:#CEE7F8;fill-opacity:1;fill-rule:nonzero;stroke:none" /><path
             d="m 162.938,285.91 c -2.047,0 -4.918,0 -13.727,0 l -1.848,0 0,-123.371 c 0,-4.09 -1.23,-5.73 -2.871,-5.73 -2.258,0 -3.281,1.421 -4.719,4.101 l -62.0894,110.039 0,-108.82 1.8476,0 c 8.6055,0 11.6797,0 13.7305,0 0.8203,0 1.8438,-0.809 1.8438,-2.039 0,-1.449 -1.0235,-2.27 -1.8438,-2.27 -2.4609,0 -6.1523,0.629 -18.039,0.629 l -0.8165,0 c -11.6835,0 -15.5664,-0.629 -18.0273,-0.629 -0.8242,0 -1.8477,0.821 -1.8477,2.27 0,1.23 1.0235,2.039 1.8477,2.039 2.4609,0 5.9375,0 13.7266,0 l 2.2461,0 0,123.781 -2.2461,0 c -7.7891,0 -11.2657,0 -13.7266,0 -0.8242,0 -1.8477,0.82 -1.8477,2.051 0,1.418 1.0235,2.25 1.8477,2.25 2.4609,0 6.3438,-0.609 18.0273,-0.609 1.2305,0 4.1016,0.187 5.3282,0.187 3.0781,0 4.5117,-1.828 7.7851,-7.57 l 54.5115,-96.938 0,100.629 -2.051,0 c -7.785,0 -11.472,0 -13.73,0 -1.023,0 -2.039,0.82 -2.039,2.051 0,1.418 1.016,2.25 2.039,2.25 2.258,0 6.152,-0.609 17.832,-0.609 l 1.023,0 c 11.887,0 15.375,0.609 17.833,0.609 1.015,0 1.835,-0.832 1.835,-2.25 0,-1.231 -0.82,-2.051 -1.835,-2.051"
             inkscape:connector-curvature="0"
             id="path94"
             style="fill:#CEE7F8;fill-opacity:1;fill-rule:nonzero;stroke:none" /><path
             d="m 305.41,157.82 c -2.461,0 -6.355,0.629 -18.039,0.629 l -5.738,0 c -11.887,0 -15.571,-0.629 -17.824,-0.629 -1.028,0 -1.844,0.821 -1.844,2.27 0,1.23 0.816,2.039 1.844,2.039 2.05,0 4.914,0 13.73,0 l 0,61.473 -48.777,0 0,-61.473 c 7.793,0 11.48,0 13.726,0 1.028,0 1.848,-0.809 1.848,-2.039 0,-1.449 -0.82,-2.27 -1.848,-2.27 -2.449,0 -6.343,0.629 -18.023,0.629 l -5.539,0 c -11.887,0 -15.574,-0.629 -18.028,-0.629 -1.027,0 -1.843,0.821 -1.843,2.27 0,1.23 0.816,2.039 1.843,2.039 2.04,0 4.914,0 13.719,0 l 0,123.781 c -8.805,0 -11.679,0 -13.719,0 -1.027,0 -1.843,0.82 -1.843,2.051 0,1.418 0.816,2.25 1.843,2.25 2.454,0 6.141,-0.609 18.028,-0.609 l 5.539,0 c 11.68,0 15.574,0.609 18.023,0.609 1.028,0 1.848,-0.832 1.848,-2.25 0,-1.231 -0.82,-2.051 -1.848,-2.051 -2.246,0 -5.933,0 -13.726,0 l 0,-57.379 48.777,0 0,57.379 c -8.816,0 -11.68,0 -13.73,0 -1.028,0 -1.844,0.82 -1.844,2.051 0,1.418 0.816,2.25 1.844,2.25 2.253,0 5.937,-0.609 17.824,-0.609 l 5.738,0 c 11.684,0 15.578,0.609 18.039,0.609 0.813,0 1.836,-0.832 1.836,-2.25 0,-1.231 -1.023,-2.051 -1.836,-2.051 -2.258,0 -5.945,0 -13.73,0 l 0,-123.781 c 7.785,0 11.472,0 13.73,0 0.813,0 1.836,-0.809 1.836,-2.039 0,-1.449 -1.023,-2.27 -1.836,-2.27"
             inkscape:connector-curvature="0"
             id="path96"
             style="fill:#CEE7F8;fill-opacity:1;fill-rule:nonzero;stroke:none" /><path
             d="m 356.875,266.852 -20.691,-61.481 40.574,0 -19.883,61.481 z M 419.18,157.82 c -2.461,0 -6.153,0.629 -18.035,0.629 l -5.129,0 c -11.68,0 -15.567,-0.629 -17.825,-0.629 -1.023,0 -1.843,0.821 -1.843,2.27 0,1.23 0.82,2.039 1.843,2.039 2.051,0 5.532,0 12.5,0 l -12.293,37.922 -43.855,0 -12.91,-37.922 2.871,0 c 7.781,0 11.473,0 13.726,0 0.825,0 1.848,-0.809 1.848,-2.039 0,-1.449 -1.023,-2.27 -1.848,-2.27 -2.46,0 -6.355,0.629 -18.035,0.629 l -0.82,0 c -11.887,0 -15.574,-0.629 -18.027,-0.629 -0.821,0 -1.844,0.821 -1.844,2.27 0,1.23 1.023,2.039 1.844,2.039 2.043,0 5.117,0 13.73,0 l 1.223,0 43.242,128.902 c 0.613,1.028 0.816,1.641 2.254,1.641 1.433,0 1.848,-0.613 2.051,-1.641 l 41.804,-128.902 c 8.606,0 11.274,0 13.528,0 0.82,0 1.843,-0.809 1.843,-2.039 0,-1.449 -1.023,-2.27 -1.843,-2.27"
             inkscape:connector-curvature="0"
             id="path98"
             style="fill:#CEE7F8;fill-opacity:1;fill-rule:nonzero;stroke:none" /><path
             d="m 538.906,285.91 c -2.051,0 -4.922,0 -13.73,0 l -1.848,0 0,-123.371 c 0,-4.09 -1.226,-5.73 -2.867,-5.73 -2.258,0 -3.281,1.421 -4.719,4.101 l -62.09,110.039 0,-108.82 1.844,0 c 8.606,0 11.684,0 13.734,0 0.821,0 1.844,-0.809 1.844,-2.039 0,-1.449 -1.023,-2.27 -1.844,-2.27 -2.46,0 -6.156,0.629 -18.039,0.629 l -0.82,0 c -11.68,0 -15.566,-0.629 -18.027,-0.629 -0.821,0 -1.848,0.821 -1.848,2.27 0,1.23 1.027,2.039 1.848,2.039 2.461,0 5.937,0 13.73,0 l 2.246,0 0,123.781 -2.246,0 c -7.793,0 -11.269,0 -13.73,0 -0.821,0 -1.848,0.82 -1.848,2.051 0,1.418 1.027,2.25 1.848,2.25 2.461,0 6.347,-0.609 18.027,-0.609 1.231,0 4.102,0.187 5.332,0.187 3.074,0 4.512,-1.828 7.781,-7.57 l 54.512,-96.938 0,100.629 -2.051,0 c -7.781,0 -11.472,0 -13.726,0 -1.028,0 -2.043,0.82 -2.043,2.051 0,1.418 1.015,2.25 2.043,2.25 2.254,0 6.148,-0.609 17.832,-0.609 l 1.023,0 c 11.887,0 15.371,0.609 17.832,0.609 1.028,0 1.836,-0.832 1.836,-2.25 0,-1.231 -0.808,-2.051 -1.836,-2.051"
             inkscape:connector-curvature="0"
             id="path100"
             style="fill:#CEE7F8;fill-opacity:1;fill-rule:nonzero;stroke:none" /><path
             d="m 661.688,285.91 c -2.047,0 -4.918,0 -13.727,0 l -1.848,0 0,-123.371 c 0,-4.09 -1.23,-5.73 -2.871,-5.73 -2.258,0 -3.281,1.421 -4.719,4.101 l -62.085,110.039 0,-108.82 1.843,0 c 8.606,0 11.68,0 13.731,0 0.82,0 1.843,-0.809 1.843,-2.039 0,-1.449 -1.023,-2.27 -1.843,-2.27 -2.461,0 -6.153,0.629 -18.035,0.629 l -0.825,0 c -11.675,0 -15.562,-0.629 -18.023,-0.629 -0.82,0 -1.848,0.821 -1.848,2.27 0,1.23 1.028,2.039 1.848,2.039 2.461,0 5.933,0 13.726,0 l 2.25,0 0,123.781 -2.25,0 c -7.793,0 -11.265,0 -13.726,0 -0.82,0 -1.848,0.82 -1.848,2.051 0,1.418 1.028,2.25 1.848,2.25 2.461,0 6.348,-0.609 18.023,-0.609 1.235,0 4.106,0.187 5.332,0.187 3.078,0 4.512,-1.828 7.786,-7.57 l 54.511,-96.938 0,100.629 -2.051,0 c -7.785,0 -11.472,0 -13.73,0 -1.023,0 -2.039,0.82 -2.039,2.051 0,1.418 1.016,2.25 2.039,2.25 2.258,0 6.152,-0.609 17.832,-0.609 l 1.023,0 c 11.887,0 15.375,0.609 17.833,0.609 1.015,0 1.835,-0.832 1.835,-2.25 0,-1.231 -0.82,-2.051 -1.835,-2.051"
             inkscape:connector-curvature="0"
             id="path102"
             style="fill:#CEE7F8;fill-opacity:1;fill-rule:nonzero;stroke:none" /><path
             d="m 715.41,286.32 c -22.129,0 -34.015,-15.371 -34.015,-62.718 0,-47.133 11.886,-62.5 34.015,-62.5 22.141,0 34.024,15.367 34.024,62.5 0,47.347 -11.883,62.718 -34.024,62.718 z m 0,-130.14 c -27.246,0 -49.797,27.269 -49.797,67.422 0,40.367 22.551,67.64 49.797,67.64 27.258,0 49.602,-27.273 49.602,-67.64 0,-40.153 -22.344,-67.422 -49.602,-67.422"
             inkscape:connector-curvature="0"
             id="path104"
             style="fill:#CEE7F8;fill-opacity:1;fill-rule:nonzero;stroke:none" /><path
             d="m 882.527,285.91 c -2.039,0 -4.91,0 -13.726,0 l -1.02,0 L 824.543,157 c -0.617,-1.008 -0.82,-1.641 -2.465,-1.641 -1.226,0 -1.844,0.633 -2.051,1.641 L 778.43,285.91 c -8.606,0 -11.477,0 -13.528,0 -0.82,0 -1.836,0.82 -1.836,2.051 0,1.418 1.016,2.25 1.836,2.25 2.461,0 6.153,-0.609 18.036,-0.609 l 5.128,0 c 11.477,0 15.364,0.609 17.825,0.609 1.023,0 1.843,-0.832 1.843,-2.25 0,-1.231 -0.82,-2.051 -1.843,-2.051 -2.258,0 -5.532,0 -12.707,0 l 34.023,-104.719 35.039,104.719 -2.668,0 c -7.781,0 -11.473,0 -13.726,0 -1.028,0 -1.848,0.82 -1.848,2.051 0,1.418 0.82,2.25 1.848,2.25 2.46,0 6.152,-0.609 17.832,-0.609 l 1.023,0 c 11.887,0 15.574,0.609 17.82,0.609 1.028,0 2.051,-0.832 2.051,-2.25 0,-1.231 -1.023,-2.051 -2.051,-2.051"
             inkscape:connector-curvature="0"
             id="path106"
             style="fill:#CEE7F8;fill-opacity:1;fill-rule:nonzero;stroke:none" /><path
             d="m 961.672,166.031 0,-6.351 c 0,-1.641 -0.82,-2.68 -1.645,-2.68 -1.843,0 -7.371,0.82 -10.449,0.82 l -52.867,0.629 c -11.887,0 -15.578,-0.629 -18.027,-0.629 -1.028,0 -1.848,0.821 -1.848,2.27 0,1.23 0.82,2.039 1.848,2.039 2.039,0 4.91,0 13.718,0 l 0,123.781 c -8.808,0 -11.679,0 -13.718,0 -1.028,0 -1.848,0.82 -1.848,2.051 0,1.418 0.82,2.25 1.848,2.25 2.449,0 6.14,-0.609 18.027,-0.609 l 48.355,0.41 c 3.079,0 8.618,1.019 10.254,1.019 1.028,0 1.848,-1.019 1.848,-2.66 l 0,-6.152 c 0,-8.399 1.016,-22.539 1.016,-24.59 0,-1.027 -0.618,-2.047 -2.039,-2.047 -1.438,0 -2.258,1.02 -2.258,2.047 0,17.012 -4.715,27.66 -16.809,27.66 l -30.535,0 0,-56.559 19.062,0 c 6.551,0 10.86,5.54 10.86,16.602 0,1.027 0.41,2.039 1.433,2.039 1.235,0 1.645,-1.012 1.645,-2.039 0,-1.84 -0.207,-5.543 -0.207,-19.051 0,-13.32 0.207,-17.23 0.207,-19.062 0,-1.028 -0.41,-2.258 -1.645,-2.258 -1.023,0 -1.433,1.23 -1.433,2.258 0,10.863 -4.309,16.601 -10.86,16.601 l -19.062,0 0,-61.082 35.254,0 c 12.09,0 16.797,10.672 16.797,27.672 0,1.031 0.82,2.051 2.051,2.051 1.433,0 2.05,-1.02 2.05,-2.051 0,-2.051 -1.023,-16.18 -1.023,-24.379"
             inkscape:connector-curvature="0"
             id="path108"
             style="fill:#CEE7F8;fill-opacity:1;fill-rule:nonzero;stroke:none" /><path
             d="m 1006.18,285.289 c -2.46,0 -6.766,0 -6.766,0 l 0,-57.168 4.926,0 c 19.67,0 30.74,6.75 30.74,30.527 0,18.864 -6.77,26.641 -28.9,26.641 z m 50.41,-128.07 c -14.75,0 -18.45,11.273 -18.45,35.242 0,20.277 -5.32,31.141 -22.94,31.141 l -15.786,0 0,-61.473 c 7.796,0 11.486,0 13.726,0 1.03,0 1.85,-0.809 1.85,-2.039 0,-1.449 -0.82,-2.27 -1.85,-2.27 -2.45,0 -6.34,0.629 -18.023,0.629 l -5.539,0 c -11.883,0 -15.574,-0.629 -18.023,-0.629 -1.028,0 -1.848,0.821 -1.848,2.27 0,1.23 0.82,2.039 1.848,2.039 2.039,0 4.91,0 13.718,0 l 0,123.781 c -8.808,0 -11.679,0 -13.718,0 -1.028,0 -1.848,0.82 -1.848,2.051 0,1.418 0.82,2.25 1.848,2.25 2.449,0 6.14,-0.609 18.023,-0.609 10.652,0 10.452,0.187 18.042,0.187 29.3,0 42.82,-13.73 42.82,-31.551 0,-14.547 -11.89,-25.609 -23.56,-29.097 17.42,-3.493 26.02,-17.219 26.02,-36.68 0,-9.832 -1.02,-18.231 -1.02,-23.152 0,-4.309 1.64,-8.618 5.33,-8.618 3.28,0 5.74,2.258 5.74,6.981 0,1.637 1.01,3.058 2.66,3.058 1.43,0 2.66,-1.421 2.66,-2.859 0,-6.551 -5.53,-10.652 -11.68,-10.652"
             inkscape:connector-curvature="0"
             id="path110"
             style="fill:#CEE7F8;fill-opacity:1;fill-rule:nonzero;stroke:none" /></g></g></g></g></svg>