<?xml version="1.0"?>
<svg width="138.1875" height="268.48749" xmlns="http://www.w3.org/2000/svg">
 <metadata id="metadata8">image/svg+xml</metadata>
 <defs>
  <clipPath id="clipPath18">
   <path id="path20" d="m0,2147.919922l0,-2147.919922l1105.51001,0l0,2147.919922l-1105.51001,0z"/>
  </clipPath>
 </defs>
 <g>
  <title>background</title>
  <rect fill="none" id="canvas_background" height="402" width="582" y="-1" x="-1"/>
 </g>
 <g>
  <title>Layer 1</title>
  <g id="g10" transform="matrix(1.25, 0, 0, -1.25, 0, 268.487)">
   <g id="g12" transform="scale(0.1)">
    <g id="g14">
     <g id="g16" clip-path="url(#clipPath18)">
      <path fill="#131313" fill-rule="nonzero" id="path22" d="m347.070007,976.840027l0,55.139954l23.660004,0l0,-8.349976l-15.347015,0l0,-15.039978l11.211029,0l0,-8.359985l-11.211029,0l0,-15.039001l15.347015,0l0,-8.351013l-23.660004,0"/>
      <path fill="#131313" fill-rule="nonzero" id="path24" d="m397.335999,976.840027l8.300781,0l0,55.101624l-8.300781,0l0,-55.101624z"/>
      <path fill="#131313" fill-rule="nonzero" id="path26" d="m460.945007,990.559021c0.062988,-3.848022 -0.932983,-7.129028 -2.984009,-9.848022c-1.35199,-1.85199 -3.253998,-3.159973 -5.72699,-3.921997c-1.303986,-0.409973 -2.846985,-0.609009 -4.605011,-0.609009c-3.265991,0 -5.957001,0.800049 -8.097992,2.410034c-1.789001,1.320007 -3.203003,3.120972 -4.25,5.390015c-1.035004,2.269958 -1.635986,4.878967 -1.811981,7.80896l7.909973,0.570007c0.351013,-3.210999 1.199005,-5.539001 2.559021,-6.97998c0.996002,-1.090027 2.123993,-1.609009 3.416992,-1.546997c1.825012,0.05896 3.282013,0.948975 4.355988,2.679993c0.562012,0.846985 0.839996,2.070007 0.839996,3.659973c0,2.289001 -1.034973,4.558044 -3.125,6.81604c-1.644989,1.550964 -4.105988,3.891968 -7.382996,7.001953c-2.757996,2.670044 -4.707001,5.060059 -5.858978,7.170044c-1.235016,2.380005 -1.835999,4.959961 -1.835999,7.75c0,5.019958 1.674988,8.819946 5.053986,11.400024c2.075012,1.559937 4.660004,2.329956 7.739014,2.329956c2.963989,0 5.496002,-0.660034 7.616974,-1.97998c1.637024,-1.02002 2.969025,-2.459961 3.972015,-4.310059c1.003998,-1.839966 1.622009,-3.969971 1.82901,-6.369934l-7.969025,-1.450012c-0.234985,2.26001 -0.878998,4.01001 -1.937988,5.27002c-0.756989,0.909912 -1.851013,1.369995 -3.296997,1.369995c-1.527008,0 -2.674988,-0.680054 -3.467987,-2.030029c-0.657013,-1.080017 -0.965027,-2.429993 -0.965027,-4.039978c0,-2.52002 1.082001,-5.090027 3.25,-7.700012c0.820007,-0.98999 2.051025,-2.169983 3.699005,-3.51001c1.938019,-1.619995 3.203003,-2.75 3.828003,-3.390015c2.054993,-2.049988 3.636993,-4.079956 4.746002,-6.070007c0.532013,-0.937988 0.957001,-1.800964 1.274017,-2.589966c0.800995,-1.968994 1.210999,-3.731018 1.225983,-5.281006"/>
      <path fill="#131313" fill-rule="nonzero" id="path28" d="m497.042999,976.840027l-8.312988,0l0,55.139954l23.665009,0l0,-8.349976l-15.35202,0l0,-15.039978l11.210999,0l0,-8.359985l-11.210999,0l0,-23.390015"/>
      <path fill="#131313" fill-rule="nonzero" id="path30" d="m547.078003,1019.320007l-3.085999,-21.72998l6.164001,0l-3.078003,21.72998zm-4.375,-29.820007l-2.012024,-12.659973l-8.647949,0l9.362976,55.100037l11.437988,0l9.234009,-55.100037l-8.75,0l-1.932983,12.659973l-8.692017,0"/>
      <path fill="#131313" fill-rule="nonzero" id="path32" d="m598.91803,985.059021l3.47699,0c2.807983,0 4.760986,1.453003 5.846985,4.351013c0.379028,1 0.574036,2.140991 0.574036,3.429993c0,3.08197 -0.585999,5.320007 -1.754028,6.72998c-1.053955,1.290039 -2.620972,1.940002 -4.666992,1.940002l-3.47699,0l0,-16.450989zm0,24.411011l3.47699,0c2.578003,0 4.31604,1.26001 5.195007,3.779968c0.307983,0.940002 0.476013,2.100037 0.476013,3.470032c0,2.289978 -0.554016,4.019958 -1.671021,5.190002c-1.036011,1.089966 -2.364014,1.630005 -4,1.630005l-3.47699,0l0,-14.070007zm-8.968994,-32.630005l0,55.139954l12.445984,0c3.281006,0 6.25,-0.859985 8.882019,-2.589966c2.257996,-1.469971 3.867981,-3.73999 4.843994,-6.820007c0.526978,-1.640015 0.781006,-3.589966 0.781006,-5.849976c0,-3.690002 -0.971985,-6.650024 -2.949036,-8.880005c-0.815979,-0.940002 -1.772949,-1.660034 -2.890991,-2.160034c1.835999,-0.699951 3.411011,-2.089966 4.708008,-4.169983c0.838989,-1.409973 1.476013,-3.229004 1.885986,-5.458984c0.203003,-1.140991 0.305054,-2.410034 0.305054,-3.820984c0,-3.488037 -0.656006,-6.449036 -1.977051,-8.890015c-1.034973,-1.898987 -2.475952,-3.429993 -4.350952,-4.570007c-2.113037,-1.289978 -4.210999,-1.929993 -6.289001,-1.929993l-15.39502,0"/>
      <path fill="#131313" fill-rule="nonzero" id="path34" d="m664.132996,1018.659973c0,3.200012 -1.58197,4.789978 -4.757996,4.789978l-5.012024,0l0,-17.630005l5.012024,0c1.315979,0 2.440979,0.460022 3.367004,1.410034c0.917969,0.929993 1.390991,2.059998 1.390991,3.380005l0,8.049988zm-4.984985,13.279968c4.640991,0 8.046997,-1.280029 10.214966,-3.819946c1.899048,-2.23999 2.856018,-5.340027 2.856018,-9.330017l0,-8c0,-3.910034 -1.489014,-7.200012 -4.437988,-9.900024l6.156982,-24.049988l-8.989014,0l-5.046997,20.75c-0.233948,0 -0.475952,0 -0.753967,0l-4.785034,0l0,-20.75l-8.315979,0l0,55.099976l13.101013,0"/>
      <path fill="#131313" fill-rule="nonzero" id="path36" d="m701.934021,976.840027l8.308594,0l0,55.101624l-8.308594,0l0,-55.101624z"/>
      <path fill="#131313" fill-rule="nonzero" id="path38" d="m746.862976,994.320007l0,-17.47998l-8.301025,0l0,55.139954l8.301025,0l0,-19.659973l10.16803,19.659973l8.859985,0l-11.371033,-22.48999l13.33905,-32.649963l-9.77301,0l-8.723022,22.378967l-2.5,-4.898987"/>
      <path fill="#131313" fill-rule="evenodd" id="path40" d="m0,889.390991l1077.170044,0l0,36.851624l-1077.170044,0l0,-36.851624z"/>
      <path fill="#131313" fill-rule="evenodd" id="path42" d="m0,0l1077.170044,0l0,45.351601l-1077.170044,0l0,-45.351601z"/>
      <path fill="#131313" fill-rule="nonzero" id="path44" d="m0,1073.609985l1077.170044,0l0,14.171875l-1077.170044,0l0,-14.171875z"/>
      <path fill="#131313" fill-rule="nonzero" id="path46" d="m178.151993,1379.290039c-49.492004,0 -91.558189,17.410034 -126.187202,52.25c-34.64839,34.819946 -51.96479,76.579956 -51.96479,125.27002l0,406.079956c0,49.470093 17.4102,91.520142 52.257801,126.160034c34.831997,34.629883 76.797192,51.949951 125.894192,51.949951c49.47702,0 91.449997,-17.429932 125.891006,-52.25c34.44101,-34.829834 51.660004,-76.789917 51.660004,-125.859985l0,-84.900024l-116.387009,0l0,87.280029c0,17.800049 -6.335999,33.030029 -19.003998,45.710083c-12.675003,12.659912 -27.910004,19 -45.733994,19c-17.807999,0 -32.945007,-6.340088 -45.417999,-19c-12.472,-12.680054 -18.699005,-27.910034 -18.699005,-45.710083l0,-407.280029c0,-17.809937 6.227005,-32.949951 18.699005,-45.419922c12.472992,-12.459961 27.610001,-18.700073 45.417999,-18.700073c17.82399,0 33.05899,6.220093 45.733994,18.640015c12.667999,12.440063 19.003998,27.540039 19.003998,45.300049l0,146.22998l-62.350998,0l0,112.800049l178.738007,0l0,-260.030029c0,-49.48999 -17.421997,-91.440063 -52.257996,-125.869995c-34.839996,-34.440063 -76.597,-51.650024 -125.292999,-51.650024"/>
      <path fill="#131313" fill-rule="nonzero" id="path48" d="m571.085999,1962.300049l-41.573975,-293.290039l83.143982,0l-41.570007,293.290039zm-58.95697,-402.530029l-27.266022,-170.98999l-116.875,0l126.503998,743.909912l154.386963,0l124.695007,-743.909912l-118.007996,0l-26.257019,170.98999l-117.179993,0"/>
      <path fill="#131313" fill-rule="nonzero" id="path50" d="m806.848022,2048.379883c0,55.149902 44.390015,99.540039 99.557983,99.540039l199.104004,0l0,-105.210083l-193.440002,0l0,-325.209961l143.659973,0l0,-99.540039l-143.659973,0l0,-430.409912l-105.221985,0l0,860.829956"/>
      <path fill="#131313" fill-rule="nonzero" id="path52" d="m116.777,685.059021c-2.312004,0 -5.039001,0.203003 -13.014999,0.203003l0,-3.364014c0,-29.179016 -19.316704,-45.757019 -43.8909,-45.757019c-29.597702,0 -50.390632,27.91803 -50.390632,69.070007c0,41.359009 22.26563,69.289001 49.347629,69.289001c15.117199,0 24.773502,-7.97998 32.332104,-16.167969c3.144501,0.628967 5.253899,3.565979 5.253899,11.757996c0,0.628967 0,2.109009 1.683601,2.109009c2.090302,0 2.090302,-1.269043 2.090302,-2.109009l0,-42.199036c0,-1.039001 -0.410706,-2.30896 -1.887207,-2.30896c-1.886696,0 -1.886696,1.269958 -1.886696,2.30896c0,23.308044 -17.429703,41.359009 -35.9063,41.359009c-22.039001,0 -34.851601,-16.159973 -34.851601,-64.039001c0,-47.659973 12.378998,-63.820007 35.8946,-63.820007c22.6758,0 27.7187,21.828003 27.7187,39.66803l0,4.203003c-8.808601,0 -10.921799,-0.203003 -13.007797,-0.203003c-0.843704,0 -1.898407,0.838989 -1.898407,2.312012c0,1.468994 1.054703,2.30896 1.898407,2.30896c2.519493,0 5.242195,-0.628967 17.417999,-0.628967l5.878899,0c11.972397,0 14.699402,0.628967 17.218399,0.628967c1.042999,0 1.883003,-0.839966 1.883003,-2.30896c0,-1.473022 -0.840004,-2.312012 -1.883003,-2.312012"/>
      <path fill="#131313" fill-rule="nonzero" id="path54" d="m169.910004,749.52002l-21.210999,-62.989014l41.582001,0l-20.371002,62.989014zm63.828003,-111.700012c-2.514999,0 -6.297012,0.629028 -18.472,0.629028l-5.254013,0c-11.964996,0 -15.957001,-0.629028 -18.265991,-0.629028c-1.055008,0 -1.891006,0.840027 -1.891006,2.309021c0,1.261963 0.835999,2.101013 1.891006,2.101013c2.102005,0 5.664001,0 12.815994,0l-12.597,38.828979l-44.944992,0l-13.219009,-38.828979l2.937012,0c7.980988,0 11.757996,0 14.07399,0c0.835999,0 1.883011,-0.83905 1.883011,-2.101013c0,-1.468994 -1.047012,-2.309021 -1.883011,-2.309021c-2.522995,0 -6.514999,0.629028 -18.475998,0.629028l-0.843994,0c-12.183006,0 -15.957001,-0.629028 -18.472008,-0.629028c-0.839996,0 -1.898994,0.840027 -1.898994,2.309021c0,1.261963 1.058998,2.101013 1.898994,2.101013c2.085007,0 5.242004,0 14.058006,0l1.261993,0l44.305008,132.05896c0.625,1.051025 0.838989,1.680054 2.304001,1.680054c1.464996,0 1.899002,-0.629028 2.10199,-1.680054l42.832001,-132.059021c8.81601,0 11.555008,0 13.855011,0c0.839996,0 1.898987,-0.838989 1.898987,-2.101013c0,-1.468994 -1.05899,-2.30896 -1.898987,-2.30896"/>
      <path fill="#131313" fill-rule="nonzero" id="path56" d="m322.156006,646.012024l0,-6.301025c0,-1.679993 -0.839996,-2.730957 -1.889984,-2.730957c-1.680023,0 -7.141022,0.839966 -10.5,0.839966l-52.70401,0.629028c-12.167007,0 -15.957001,-0.629028 -18.475998,-0.629028c-1.046997,0 -1.887009,0.840027 -1.887009,2.309021c0,1.261963 0.840012,2.101013 1.887009,2.101013c2.104996,0 5.035004,0 14.069992,0l0,126.80896c-9.034988,0 -10.917999,0 -13.014999,0c-0.839996,0 -1.899002,0.840027 -1.899002,2.10199c0,1.468018 1.059006,2.308044 1.899002,2.308044c2.514999,0 5.253998,-0.629028 17.421005,-0.629028l5.671997,0c11.960999,0 14.911011,0.629028 17.429993,0.629028c0.843994,0 1.886993,-0.840027 1.886993,-2.308044c0,-1.261963 -1.042999,-2.10199 -1.886993,-2.10199c-2.311981,0 -5.035004,0 -13.02298,0l0,-126.179993l34.643982,0c12.386993,0 17.218994,10.921997 17.218994,28.340027c0,1.062988 0.637024,2.10199 2.101013,2.10199c1.460999,0 2.097992,-1.039001 2.097992,-2.10199c0,-2.097046 -1.046997,-16.578003 -1.046997,-25.187012"/>
      <path fill="#131313" fill-rule="nonzero" id="path58" d="m417.285004,646.218994l0,-6.507996c0,-1.679993 -0.839996,-2.731018 -1.679993,-2.731018c-1.882019,0 -7.558014,0.840027 -10.710022,0.840027l-54.164978,0.628967c-12.183014,0 -15.957001,-0.628967 -18.472015,-0.628967c-1.05899,0 -1.898987,0.839966 -1.898987,2.30896c0,1.262024 0.839996,2.101013 1.898987,2.101013c2.089996,0 5.039001,0 14.058014,0l0,126.809021c-9.019012,0 -11.968018,0 -14.058014,0c-1.05899,0 -1.898987,0.839966 -1.898987,2.10199c0,1.468018 0.839996,2.307983 1.898987,2.307983c2.515015,0 6.289001,-0.628967 18.472015,-0.628967l49.550995,0.417969c3.148987,0 8.812988,1.051025 10.488983,1.051025c1.054016,0 1.89801,-1.051025 1.89801,-2.730042l0,-6.296997c0,-8.613953 1.054993,-23.089966 1.054993,-25.191956c0,-1.058044 -0.636993,-2.101013 -2.113983,-2.101013c-1.46402,0 -2.300018,1.042969 -2.300018,2.101013c0,17.421997 -4.828979,28.339966 -17.218994,28.339966l-31.277985,0l0,-57.948975l19.519989,0c6.718994,0 11.121002,5.667969 11.121002,17.007996c0,1.062012 0.43399,2.101013 1.47699,2.101013c1.257996,0 1.679016,-1.039001 1.679016,-2.101013c0,-1.887024 -0.207001,-5.660034 -0.207001,-19.528015c0,-13.640015 0.207001,-17.640015 0.207001,-19.518982c0,-1.051025 -0.421021,-2.320007 -1.679016,-2.320007c-1.042999,0 -1.47699,1.268982 -1.47699,2.320007c0,11.117004 -4.402008,17 -11.121002,17l-19.519989,0l0,-62.562988l36.113983,0c12.382996,0 17.207001,10.921997 17.207001,28.339966c0,1.062988 0.839996,2.10199 2.105011,2.10199c1.464996,0 2.089996,-1.039001 2.089996,-2.10199c0,-2.096985 -1.042999,-16.578003 -1.042999,-24.97998"/>
      <path fill="#131313" fill-rule="nonzero" id="path60" d="m469.160004,768.409973c-2.519012,0 -6.925995,0 -6.925995,0l0,-58.578003l5.039001,0c20.16098,0 31.488983,6.937988 31.488983,31.289001c0,19.320007 -6.925995,27.289001 -29.60199,27.289001zm51.652008,-131.218994c-15.121002,0 -18.89801,11.551025 -18.89801,36.109985c0,20.789001 -5.460999,31.910034 -23.515991,31.910034l-16.164001,0l0,-62.981018c7.968994,0 11.757996,0 14.066986,0c1.054016,0 1.890015,-0.838989 1.890015,-2.101013c0,-1.468994 -0.835999,-2.30896 -1.890015,-2.30896c-2.523987,0 -6.503998,0.628967 -18.480988,0.628967l-5.664001,0c-12.183014,0 -15.957001,-0.628967 -18.472015,-0.628967c-1.054993,0 -1.898987,0.839966 -1.898987,2.30896c0,1.262024 0.843994,2.101013 1.898987,2.101013c2.085999,0 5.039001,0 14.058014,0l0,126.809021c-9.019012,0 -11.972015,0 -14.058014,0c-1.054993,0 -1.898987,0.839966 -1.898987,2.10199c0,1.468018 0.843994,2.307983 1.898987,2.307983c2.515015,0 6.289001,-0.628967 18.472015,-0.628967c10.917999,0 10.703003,0.218994 18.480988,0.218994c30.015015,0 43.875031,-14.078003 43.875031,-32.348022c0,-14.901978 -12.176025,-26.242004 -24.153015,-29.799988c17.855988,-3.582031 26.671997,-17.640991 26.671997,-37.590027c0,-10.08197 -1.046997,-18.679993 -1.046997,-23.718994c0,-4.409973 1.684021,-8.83197 5.453979,-8.83197c3.359009,0 5.874023,2.320007 5.874023,7.14801c0,1.68396 1.054993,3.140991 2.739014,3.140991c1.464966,0 2.72998,-1.457031 2.72998,-2.929993c0,-6.718018 -5.671997,-10.91803 -11.968994,-10.91803"/>
      <path fill="#131313" fill-rule="nonzero" id="path62" d="m582.97998,637.820007c-2.315979,0 -6.307983,0.629028 -18.27301,0.629028l-5.878967,0c-12.179993,0 -15.957031,-0.629028 -18.476013,-0.629028c-0.840027,0 -1.882996,0.840027 -1.882996,2.309021c0,1.261963 1.042969,2.100952 1.882996,2.100952c2.096985,0 5.245972,0 14.073975,0l0,126.809021c-8.828003,0 -11.97699,0 -14.073975,0c-0.840027,0 -1.882996,0.840027 -1.882996,2.10199c0,1.468018 1.042969,2.308044 1.882996,2.308044c2.518982,0 6.296021,-0.629028 18.476013,-0.629028l5.878967,0c11.965027,0 15.957031,0.629028 18.27301,0.629028c1.04303,0 1.882996,-0.840027 1.882996,-2.308044c0,-1.261963 -0.839966,-2.10199 -1.882996,-2.10199c-2.315979,0 -6.093018,0 -14.073975,0l0,-126.809021c7.980957,0 11.757996,0 14.073975,0c1.04303,0 1.882996,-0.838989 1.882996,-2.100952c0,-1.468994 -0.839966,-2.309021 -1.882996,-2.309021"/>
      <path fill="#131313" fill-rule="nonzero" id="path64" d="m684.39502,646.218994l0,-6.507996c0,-1.679993 -0.840027,-2.731018 -1.679993,-2.731018c-1.887024,0 -7.559021,0.840027 -10.710999,0.840027l-54.160034,0.628967c-12.191956,0 -15.95697,-0.628967 -18.480957,-0.628967c-1.051025,0 -1.890015,0.839966 -1.890015,2.30896c0,1.262024 0.838989,2.101013 1.890015,2.101013c2.089966,0 5.039001,0 14.066956,0l0,126.809021c-9.027954,0 -11.97699,0 -14.066956,0c-1.051025,0 -1.890015,0.839966 -1.890015,2.10199c0,1.468018 0.838989,2.307983 1.890015,2.307983c2.523987,0 6.289001,-0.628967 18.480957,-0.628967l49.551025,0.417969c3.140015,0 8.804016,1.051025 10.487976,1.051025c1.055054,0 1.890015,-1.051025 1.890015,-2.730042l0,-6.296997c0,-8.613953 1.054993,-23.089966 1.054993,-25.191956c0,-1.058044 -0.632996,-2.101013 -2.10498,-2.101013c-1.465027,0 -2.304993,1.042969 -2.304993,2.101013c0,17.421997 -4.824036,28.339966 -17.218994,28.339966l-31.277039,0l0,-57.948975l19.519043,0c6.718994,0 11.120972,5.667969 11.120972,17.007996c0,1.062012 0.429993,2.101013 1.47699,2.101013c1.262024,0 1.679993,-1.039001 1.679993,-2.101013c0,-1.887024 -0.203003,-5.660034 -0.203003,-19.528015c0,-13.640015 0.203003,-17.640015 0.203003,-19.518982c0,-1.051025 -0.417969,-2.320007 -1.679993,-2.320007c-1.046997,0 -1.47699,1.268982 -1.47699,2.320007c0,11.117004 -4.401978,17 -11.120972,17l-19.519043,0l0,-62.562988l36.109009,0c12.387024,0 17.207031,10.921997 17.207031,28.339966c0,1.062988 0.839966,2.10199 2.113953,2.10199c1.460022,0 2.08606,-1.039001 2.08606,-2.10199c0,-2.096985 -1.04303,-16.578003 -1.04303,-24.97998"/>
      <path fill="#131313" fill-rule="nonzero" id="path66" d="m843.151978,737.968994c-1.463989,0 -2.096985,1.042969 -2.096985,2.101013c0,17.421997 -4.832031,28.339966 -17.215027,28.339966l-34.651978,0l0,-57.948975l22.890015,0c6.507996,0 11.136963,5.667969 11.136963,17.007996c0,1.062012 0.203003,2.101013 1.465027,2.101013c1.049988,0 1.464966,-1.039001 1.464966,-2.101013c0,-1.887024 -0.20697,-5.660034 -0.20697,-19.528015c0,-13.851013 0.20697,-17.640015 0.20697,-19.518982c0,-1.051025 -0.414978,-2.320007 -1.464966,-2.320007c-1.262024,0 -1.465027,1.268982 -1.465027,2.320007c0,11.117004 -4.628967,17 -11.136963,17l-22.890015,0l0,-63.192017c7.992004,0 10.713989,0 13.031006,0c0.839966,0 1.882996,-0.838989 1.882996,-2.101013c0,-1.468994 -1.04303,-2.30896 -1.882996,-2.30896c-2.523987,0 -5.473022,0.628967 -17.434021,0.628967l-5.675964,0c-12.16803,0 -14.89801,-0.628967 -17.421021,-0.628967c-0.835999,0 -1.890991,0.839966 -1.890991,2.30896c0,1.262024 1.054993,2.101013 1.890991,2.101013c2.101013,0 3.987976,0 13.018982,0l0,126.809021c-9.031006,0 -11.964966,0 -14.070007,0c-1.046997,0 -1.886963,0.839966 -1.886963,2.10199c0,1.468018 0.839966,2.307983 1.886963,2.307983c2.515015,0 6.304016,-0.628967 18.472046,-0.628967l52.70697,0.417969c3.359985,0 8.820984,1.051025 10.495972,1.051025c1.055054,0 1.899048,-1.051025 1.899048,-2.730042l0,-6.296997c0,-8.613953 1.042969,-23.089966 1.042969,-25.191956c0,-1.058044 -0.636963,-2.101013 -2.10199,-2.101013"/>
      <path fill="#131313" fill-rule="nonzero" id="path68" d="m920.651978,785.210999c-3.992004,0 -7.351013,3.348022 -7.351013,7.348022c0,4.203003 3.359009,7.561951 7.351013,7.561951c3.989014,0 7.343994,-3.358948 7.343994,-7.561951c0,-4 -3.35498,-7.348022 -7.343994,-7.348022zm-31.289001,0c-4.195007,0 -7.554016,3.348022 -7.554016,7.348022c0,4.203003 3.359009,7.561951 7.554016,7.561951c3.989014,0 7.348022,-3.358948 7.348022,-7.561951c0,-4 -3.359009,-7.348022 -7.348022,-7.348022zm66.132996,-16.171997c-2.304993,0 -5.242004,0 -14.27301,0l-1.886963,0l0,-95.737976c0,-24.992004 -17.843994,-37.590027 -38.429993,-37.590027c-20.562012,0 -39.676025,12.598022 -39.676025,37.590027l0,95.737976c-9.034973,0 -11.960022,0 -14.073975,0c-1.04303,0 -1.882996,0.840027 -1.882996,2.10199c0,1.468018 0.839966,2.307983 1.882996,2.307983c2.523987,0 6.097961,-0.628967 18.273987,-0.628967l5.878967,0c11.960999,0 15.957031,0.628967 18.476013,0.628967c0.840027,0 1.887024,-0.839966 1.887024,-2.307983c0,-1.261963 -1.046997,-2.10199 -1.887024,-2.10199c-2.312012,0 -6.085999,0 -14.070007,0l0,-99.518982c0,-19.098022 13.433044,-27.5 29.187012,-27.5c18.273987,0 28.97699,13.217957 28.97699,31.281006l0,95.737976l-2.10199,0c-7.976013,0 -11.757019,0 -14.073975,0c-1.04303,0 -1.882996,0.840027 -1.882996,2.10199c0,1.468018 0.839966,2.307983 1.882996,2.307983c2.523987,0 6.515991,-0.628967 18.480957,-0.628967l0.835999,0c12.19104,0 15.960022,0.628967 18.476013,0.628967c0.843994,0 1.898987,-0.839966 1.898987,-2.307983c0,-1.261963 -1.054993,-2.10199 -1.898987,-2.10199"/>
      <path fill="#131313" fill-rule="nonzero" id="path70" d="m998.984009,768.409973c-2.518982,0 -6.921997,0 -6.921997,0l0,-58.578003l5.039978,0c20.15802,0 31.477966,6.937988 31.477966,31.289001c0,19.320007 -6.919922,27.289001 -29.595947,27.289001zm51.645996,-131.218994c-15.109985,0 -18.890015,11.551025 -18.890015,36.109985c0,20.789001 -5.459961,31.910034 -23.519958,31.910034l-16.15802,0l0,-62.981018c7.968018,0 11.757996,0 14.057983,0c1.059998,0 1.900024,-0.838989 1.900024,-2.101013c0,-1.468994 -0.840027,-2.30896 -1.900024,-2.30896c-2.519958,0 -6.502991,0.628967 -18.474976,0.628967l-5.665039,0c-12.182983,0 -15.95697,-0.628967 -18.471985,-0.628967c-1.05896,0 -1.898987,0.839966 -1.898987,2.30896c0,1.262024 0.840027,2.101013 1.898987,2.101013c2.090027,0 5.039001,0 14.058044,0l0,126.809021c-9.019043,0 -11.968018,0 -14.058044,0c-1.05896,0 -1.898987,0.839966 -1.898987,2.10199c0,1.468018 0.840027,2.307983 1.898987,2.307983c2.515015,0 6.289001,-0.628967 18.471985,-0.628967c10.91803,0 10.708008,0.218994 18.480042,0.218994c30.019958,0 43.879944,-14.078003 43.879944,-32.348022c0,-14.901978 -12.179932,-26.242004 -24.149963,-29.799988c17.850037,-3.582031 26.669983,-17.640991 26.669983,-37.590027c0,-10.08197 -1.049927,-18.679993 -1.049927,-23.718994c0,-4.409973 1.679932,-8.83197 5.449951,-8.83197c3.359985,0 5.880005,2.320007 5.880005,7.14801c0,1.68396 1.050049,3.140991 2.72998,3.140991c1.469971,0 2.73999,-1.457031 2.73999,-2.929993c0,-6.718018 -5.679932,-10.91803 -11.97998,-10.91803"/>
      <path fill="#131313" fill-rule="nonzero" id="path72" d="m103.914001,497.968994c-1.465004,0 -2.098,1.042999 -2.098,2.100983c0,17.422028 -4.835503,28.339996 -17.2183,28.339996l-34.644604,0l0,-57.948975l22.890705,0c6.5,0 11.128899,5.667999 11.128899,17.007996c0,1.061981 0.207001,2.100983 1.468697,2.100983c1.050804,0 1.464798,-1.039001 1.464798,-2.100983c0,-1.886993 -0.206993,-5.660004 -0.206993,-19.528015c0,-13.850983 0.206993,-17.639984 0.206993,-19.518982c0,-1.050995 -0.413994,-2.320007 -1.464798,-2.320007c-1.261696,0 -1.468697,1.269012 -1.468697,2.320007c0,11.117004 -4.628899,17 -11.128899,17l-22.890705,0l0,-63.192017c7.9883,0 10.711002,0 13.023502,0c0.8437,0 1.886696,-0.838989 1.886696,-2.100983c0,-1.468994 -1.042995,-2.309021 -1.886696,-2.309021c-2.515701,0 -5.464901,0.629028 -17.429699,0.629028l-5.6758,0c-12.164101,0 -14.902302,-0.629028 -17.418001,-0.629028c-0.8437,0 -1.898399,0.840027 -1.898399,2.309021c0,1.261993 1.054699,2.100983 1.898399,2.100983c2.0977,0 3.980499,0 13.015699,0l0,126.809021c-9.0352,0 -11.961,0 -14.0704,0c-1.046799,0 -1.8867,0.839966 -1.8867,2.10199c0,1.468018 0.839901,2.307983 1.8867,2.307983c2.515701,0 6.308601,-0.628967 18.472702,-0.628967l52.707001,0.417969c3.359398,0 8.816895,1.051025 10.495895,1.051025c1.059006,0 1.899002,-1.051025 1.899002,-2.730042l0,-6.296997c0,-8.613953 1.042999,-23.089966 1.042999,-25.191986c0,-1.057983 -0.632996,-2.100983 -2.101997,-2.100983"/>
      <path fill="#131313" fill-rule="nonzero" id="path74" d="m161.671997,529.460999c-22.679993,0 -34.855995,-15.742004 -34.855995,-64.25c0,-48.289001 12.176003,-64.031006 34.855995,-64.031006c22.67601,0 34.850998,15.742004 34.850998,64.031006c0,48.507996 -12.174988,64.25 -34.850998,64.25zm0,-133.320007c-27.93399,0 -51.019997,27.917999 -51.019997,69.070007c0,41.358978 23.086006,69.289001 51.019997,69.289001c27.930008,0 50.807999,-27.930023 50.807999,-69.289001c0,-41.152008 -22.877991,-69.070007 -50.807999,-69.070007"/>
      <path fill="#131313" fill-rule="nonzero" id="path76" d="m314.070007,497.968994c-1.471985,0 -2.312012,1.042999 -2.312012,2.100983c0,17.422028 -4.832001,28.339996 -17.218994,28.339996l-19.526978,0l0,-126.179993c7.983978,0 10.507996,0 13.02298,0c0.843994,0 1.886993,-0.838989 1.886993,-2.100983c0,-1.468994 -1.042999,-2.309021 -1.886993,-2.309021c-2.514984,0 -5.468994,0.629028 -17.429993,0.629028l-5.877991,0c-12.17601,0 -14.700012,-0.629028 -17.215012,-0.629028c-1.059006,0 -1.899002,0.840027 -1.899002,2.309021c0,1.261993 0.839996,2.100983 1.899002,2.100983c2.097,0 3.979996,0 13.014999,0l0,126.179993l-19.737991,0c-12.383011,0 -17.215012,-10.917969 -17.215012,-28.339996c0,-1.057983 -0.636002,-2.100983 -2.097,-2.100983c-1.464996,0 -2.10199,1.042999 -2.10199,2.100983c0,2.10202 1.046997,16.578033 1.046997,25.191986l0,6.296997c0,1.679016 0.839996,2.730042 1.889999,2.730042c1.679993,0 7.140991,-1.051025 10.5,-1.051025c0,0 27.083008,-0.628967 34.85199,-0.417969c7.774017,0 34.856018,0.417969 34.856018,0.417969c3.358978,0 9.035004,1.051025 10.709991,1.051025c1.046997,0 1.886993,-1.051025 1.886993,-2.730042l0,-6.296997c0,-8.613953 0.839996,-23.089966 0.839996,-25.191986c0,-1.057983 -0.636993,-2.100983 -1.886993,-2.100983"/>
      <path fill="#131313" fill-rule="nonzero" id="path78" d="m373.867004,529.460999c-22.675995,0 -34.851013,-15.742004 -34.851013,-64.25c0,-48.289001 12.175018,-64.031006 34.851013,-64.031006c22.675995,0 34.855988,15.742004 34.855988,64.031006c0,48.507996 -12.179993,64.25 -34.855988,64.25zm0,-133.320007c-27.921997,0 -51.02298,27.917999 -51.02298,69.070007c0,41.358978 23.100983,69.289001 51.02298,69.289001c27.917999,0 50.812988,-27.930023 50.812988,-69.289001c0,-41.152008 -22.894989,-69.070007 -50.812988,-69.070007"/>
      <path fill="#131313" fill-rule="nonzero" id="path80" d="m549.210999,445.05899c-2.309021,0 -5.039001,0.203003 -13.02002,0.203003l0,-3.364014c0,-29.178986 -19.315979,-45.756989 -43.878967,-45.756989c-29.609009,0 -50.386017,27.917999 -50.386017,69.070007c0,41.358978 22.246002,69.289001 49.335999,69.289001c15.117004,0 24.77298,-7.97998 32.332001,-16.16803c3.151978,0.629028 5.245972,3.56604 5.245972,11.757996c0,0.629028 0,2.109009 1.680054,2.109009c2.108948,0 2.108948,-1.268982 2.108948,-2.109009l0,-42.198975c0,-1.039001 -0.43396,-2.30899 -1.898987,-2.30899c-1.890015,0 -1.890015,1.269989 -1.890015,2.30899c0,23.308014 -17.421967,41.359009 -35.901978,41.359009c-22.046997,0 -34.85199,-16.160034 -34.85199,-64.039001c0,-47.660004 12.393982,-63.820007 35.906006,-63.820007c22.679993,0 27.718994,21.828003 27.718994,39.667999l0,4.203003c-8.828003,0 -10.917999,-0.203003 -13.027008,-0.203003c-0.839996,0 -1.886993,0.838989 -1.886993,2.312012c0,1.468994 1.046997,2.30899 1.886993,2.30899c2.515015,0 5.253998,-0.628998 17.428986,-0.628998l5.879028,0c11.960999,0 14.695984,0.628998 17.218994,0.628998c1.054993,0 1.893982,-0.839996 1.893982,-2.30899c0,-1.473022 -0.838989,-2.312012 -1.893982,-2.312012"/>
      <path fill="#131313" fill-rule="nonzero" id="path82" d="m589.948975,528.409973c-2.515015,0 -6.929016,0 -6.929016,0l0,-58.578003l5.039001,0c20.156006,0 31.502991,6.937988 31.502991,31.289001c0,19.320007 -6.932983,27.289001 -29.612976,27.289001zm51.653015,-131.218994c-15.118042,0 -18.899048,11.550995 -18.899048,36.110016c0,20.788971 -5.45697,31.909973 -23.514954,31.909973l-16.16803,0l0,-62.980988c7.988037,0 11.753052,0 14.070007,0c1.046997,0 1.887024,-0.838989 1.887024,-2.101013c0,-1.468994 -0.840027,-2.30899 -1.887024,-2.30899c-2.519958,0 -6.515991,0.628998 -18.47699,0.628998l-5.674988,0c-12.16803,0 -15.958008,-0.628998 -18.473022,-0.628998c-1.046997,0 -1.886963,0.839996 -1.886963,2.30899c0,1.262024 0.839966,2.101013 1.886963,2.101013c2.105042,0 5.039001,0 14.070007,0l0,126.809021c-9.031006,0 -11.964966,0 -14.070007,0c-1.046997,0 -1.886963,0.839966 -1.886963,2.10199c0,1.468018 0.839966,2.307983 1.886963,2.307983c2.515015,0 6.304993,-0.628967 18.473022,-0.628967c10.916992,0 10.713989,0.218994 18.47998,0.218994c30.027039,0 43.887024,-14.078003 43.887024,-32.348022c0,-14.902008 -12.179993,-26.242004 -24.14502,-29.799988c17.843994,-3.582001 26.660034,-17.641022 26.660034,-37.589996c0,-10.082001 -1.050049,-18.680023 -1.050049,-23.719025c0,-4.410004 1.675049,-8.832001 5.46405,-8.832001c3.363953,0 5.878967,2.320007 5.878967,7.14801c0,1.68399 1.046997,3.140991 2.72699,3.140991c1.471985,0 2.721985,-1.457001 2.721985,-2.929993c0,-6.717987 -5.66394,-10.917999 -11.959961,-10.917999"/>
      <path fill="#131313" fill-rule="nonzero" id="path84" d="m722.66803,509.519989l-21.215027,-62.989014l41.582031,0l-20.367004,62.989014zm63.823975,-111.700012c-2.514954,0 -6.296997,0.629028 -18.471985,0.629028l-5.253967,0c-11.965027,0 -15.957031,-0.629028 -18.262024,-0.629028c-1.059021,0 -1.898987,0.840027 -1.898987,2.309021c0,1.261993 0.839966,2.100983 1.898987,2.100983c2.098022,0 5.664001,0 12.807983,0l-12.592957,38.82901l-44.946045,0l-13.217957,-38.82901l2.936951,0c7.981018,0 11.757996,0 14.070007,0c0.840027,0 1.887024,-0.838989 1.887024,-2.100983c0,-1.468994 -1.046997,-2.309021 -1.887024,-2.309021c-2.514954,0 -6.510986,0.629028 -18.471985,0.629028l-0.843994,0c-12.184021,0 -15.953003,-0.629028 -18.476013,-0.629028c-0.835999,0 -1.890991,0.840027 -1.890991,2.309021c0,1.261993 1.054993,2.100983 1.890991,2.100983c2.088989,0 5.246033,0 14.06604,0l1.257996,0l44.303955,132.059021c0.625,1.051025 0.840027,1.679993 2.304993,1.679993c1.469055,0 1.899048,-0.628967 2.102051,-1.679993l42.83197,-132.05899c8.815979,0 11.551025,0 13.85498,0c0.843994,0 1.898987,-0.838989 1.898987,-2.101013c0,-1.468994 -1.054993,-2.30899 -1.898987,-2.30899"/>
      <path fill="#131313" fill-rule="nonzero" id="path86" d="m881.632996,497.968994c-1.464966,0 -2.10199,1.042999 -2.10199,2.100983c0,17.422028 -4.835999,28.339996 -17.218994,28.339996l-34.644043,0l0,-57.948975l22.891052,0c6.502991,0 11.128967,5.667999 11.128967,17.007996c0,1.061981 0.207031,2.100983 1.463989,2.100983c1.059021,0 1.465027,-1.039001 1.465027,-2.100983c0,-1.886993 -0.203003,-5.660004 -0.203003,-19.528015c0,-13.850983 0.203003,-17.639984 0.203003,-19.518982c0,-1.050995 -0.406006,-2.320007 -1.465027,-2.320007c-1.256958,0 -1.463989,1.269012 -1.463989,2.320007c0,11.117004 -4.625977,17 -11.128967,17l-22.891052,0l0,-63.192017c7.984009,0 10.71106,0 13.02301,0c0.840027,0 1.887024,-0.838989 1.887024,-2.100983c0,-1.468994 -1.046997,-2.309021 -1.887024,-2.309021c-2.515015,0 -5.463989,0.629028 -17.429016,0.629028l-5.671997,0c-12.167969,0 -14.901978,-0.629028 -17.421997,-0.629028c-0.843994,0 -1.897949,0.840027 -1.897949,2.309021c0,1.261993 1.053955,2.100983 1.897949,2.100983c2.098022,0 3.980042,0 13.015991,0l0,126.809021c-9.03595,0 -11.960999,0 -14.074951,0c-1.04303,0 -1.882019,0.839966 -1.882019,2.10199c0,1.468018 0.838989,2.307983 1.882019,2.307983c2.523987,0 6.312988,-0.628967 18.480957,-0.628967l52.703003,0.417969c3.359009,0 8.81604,1.051025 10.5,1.051025c1.054993,0 1.89502,-1.051025 1.89502,-2.730042l0,-6.296997c0,-8.613953 1.041992,-23.089966 1.041992,-25.191986c0,-1.057983 -0.632019,-2.100983 -2.096985,-2.100983"/>
      <path fill="#131313" fill-rule="nonzero" id="path88" d="m936.862976,397.820007c-2.301025,0 -6.289001,0.628998 -18.257996,0.628998l-5.877991,0c-12.179993,0 -15.957031,-0.628998 -18.481018,-0.628998c-0.839966,0 -1.890991,0.839996 -1.890991,2.30899c0,1.262024 1.051025,2.101013 1.890991,2.101013c2.10199,0 5.257996,0 14.065979,0l0,126.80899c-8.807983,0 -11.963989,0 -14.065979,0c-0.839966,0 -1.890991,0.840027 -1.890991,2.10199c0,1.468018 1.051025,2.308044 1.890991,2.308044c2.523987,0 6.301025,-0.629028 18.481018,-0.629028l5.877991,0c11.968994,0 15.95697,0.629028 18.257996,0.629028c1.059021,0 1.898987,-0.840027 1.898987,-2.308044c0,-1.261963 -0.839966,-2.10199 -1.898987,-2.10199c-2.301025,0 -6.08197,0 -14.057983,0l0,-126.80899c7.976013,0 11.756958,0 14.057983,0c1.059021,0 1.898987,-0.838989 1.898987,-2.101013c0,-1.468994 -0.839966,-2.30899 -1.898987,-2.30899"/>
      <path fill="#131313" fill-rule="nonzero" id="path90" d="m1041.650024,406.218994l0,-6.507996c0,-1.680023 -0.839966,-2.731018 -1.680054,-2.731018c-1.889893,0 -7.559937,0.839996 -10.699951,0.839996l-54.179993,0.629028c-12.16803,0 -15.957031,-0.629028 -18.481018,-0.629028c-1.042969,0 -1.882019,0.840027 -1.882019,2.309021c0,1.261993 0.83905,2.100983 1.882019,2.100983c2.114014,0 5.039001,0 14.075012,0l0,126.809021c-9.036011,0 -11.960999,0 -14.075012,0c-1.042969,0 -1.882019,0.839966 -1.882019,2.10199c0,1.468018 0.83905,2.307983 1.882019,2.307983c2.523987,0 6.312988,-0.628967 18.481018,-0.628967l49.549988,0.417969c3.150024,0 8.829956,1.051025 10.51001,1.051025c1.040039,0 1.880005,-1.051025 1.880005,-2.730042l0,-6.296997c0,-8.613953 1.050049,-23.089966 1.050049,-25.191986c0,-1.057983 -0.630005,-2.100983 -2.090088,-2.100983c-1.47998,0 -2.319946,1.042999 -2.319946,2.100983c0,17.422028 -4.830078,28.339996 -17.210022,28.339996l-31.291992,0l0,-57.948975l19.531982,0c6.720032,0 11.130005,5.667999 11.130005,17.007996c0,1.061981 0.409973,2.100983 1.460022,2.100983c1.26001,0 1.679993,-1.039001 1.679993,-2.100983c0,-1.886993 -0.210022,-5.660004 -0.210022,-19.528015c0,-13.639984 0.210022,-17.639984 0.210022,-19.518982c0,-1.050995 -0.419983,-2.320007 -1.679993,-2.320007c-1.050049,0 -1.460022,1.269012 -1.460022,2.320007c0,11.117004 -4.409973,17 -11.130005,17l-19.531982,0l0,-62.563019l36.112,0c12.390015,0 17.22998,10.921997 17.22998,28.340027c0,1.062988 0.839966,2.10199 2.089966,2.10199c1.470093,0 2.109985,-1.039001 2.109985,-2.10199c0,-2.097015 -1.059937,-16.578003 -1.059937,-24.980011"/>
      <path fill="#131313" fill-rule="nonzero" id="path92" d="m44.882801,157.820007c-2.253902,0 -6.144501,0.628998 -17.832001,0.628998l-5.730501,0c-11.886709,0 -15.578109,-0.628998 -18.039049,-0.628998c-0.82031,0 -1.84375,0.820999 -1.84375,2.270004c0,1.229996 1.02344,2.039001 1.84375,2.039001c2.05078,0 5.125,0 13.73045,0l0,123.780991c-8.60545,0 -11.67967,0 -13.73045,0c-0.82031,0 -1.84375,0.820007 -1.84375,2.050995c0,1.417999 1.02344,2.25 1.84375,2.25c2.46094,0 6.15234,-0.608978 18.039049,-0.608978l5.730501,0c11.6875,0 15.578098,0.608978 17.832001,0.608978c1.023399,0 1.8438,-0.832001 1.8438,-2.25c0,-1.230988 -0.8204,-2.050995 -1.8438,-2.050995c-2.253902,0 -5.9375,0 -13.730501,0l0,-123.780991c7.793001,0 11.476599,0 13.730501,0c1.023399,0 1.8438,-0.809006 1.8438,-2.039001c0,-1.449005 -0.8204,-2.270004 -1.8438,-2.270004"/>
      <path fill="#131313" fill-rule="nonzero" id="path94" d="m162.938004,285.910004c-2.046997,0 -4.917999,0 -13.727005,0l-1.847992,0l0,-123.371002c0,-4.089996 -1.230011,-5.729996 -2.871002,-5.729996c-2.258011,0 -3.281006,1.42099 -4.719009,4.100998l-62.089394,110.039001l0,-108.820007l1.847595,0c8.605507,0 11.679703,0 13.730507,0c0.820297,0 1.843796,-0.80899 1.843796,-2.039001c0,-1.44899 -1.023499,-2.269989 -1.843796,-2.269989c-2.460907,0 -6.152306,0.628998 -18.039001,0.628998l-0.816505,0c-11.683498,0 -15.566395,-0.628998 -18.027298,-0.628998c-0.8242,0 -1.847698,0.820999 -1.847698,2.269989c0,1.230011 1.023499,2.039001 1.847698,2.039001c2.460903,0 5.9375,0 13.726601,0l2.246101,0l0,123.781006l-2.246101,0c-7.789101,0 -11.265697,0 -13.726601,0c-0.8242,0 -1.847698,0.820007 -1.847698,2.050995c0,1.417999 1.023499,2.25 1.847698,2.25c2.460903,0 6.3438,-0.609009 18.027298,-0.609009c1.230507,0 4.101601,0.187012 5.328201,0.187012c3.078102,0 4.511703,-1.828003 7.785103,-7.570007l54.511505,-96.937988l0,100.628998l-2.05101,0c-7.784988,0 -11.472,0 -13.729996,0c-1.023003,0 -2.039001,0.820007 -2.039001,2.050995c0,1.417999 1.015999,2.25 2.039001,2.25c2.257996,0 6.151993,-0.609009 17.832001,-0.609009l1.022995,0c11.887009,0 15.375,0.609009 17.833008,0.609009c1.014999,0 1.835007,-0.832001 1.835007,-2.25c0,-1.230988 -0.820007,-2.050995 -1.835007,-2.050995"/>
      <path fill="#131313" fill-rule="nonzero" id="path96" d="m305.410004,157.820007c-2.460999,0 -6.355011,0.628998 -18.039001,0.628998l-5.738007,0c-11.886993,0 -15.570984,-0.628998 -17.824005,-0.628998c-1.027985,0 -1.843994,0.820999 -1.843994,2.270004c0,1.229996 0.81601,2.039001 1.843994,2.039001c2.050018,0 4.914001,0 13.730011,0l0,61.472992l-48.777008,0l0,-61.472992c7.792999,0 11.480011,0 13.726013,0c1.028,0 1.847992,-0.809006 1.847992,-2.039001c0,-1.449005 -0.819992,-2.270004 -1.847992,-2.270004c-2.449005,0 -6.343002,0.628998 -18.02301,0.628998l-5.539001,0c-11.886993,0 -15.57399,-0.628998 -18.028,-0.628998c-1.026993,0 -1.843002,0.820999 -1.843002,2.270004c0,1.229996 0.81601,2.039001 1.843002,2.039001c2.040009,0 4.914001,0 13.719009,0l0,123.780991c-8.805008,0 -11.679001,0 -13.719009,0c-1.026993,0 -1.843002,0.820007 -1.843002,2.050995c0,1.417999 0.81601,2.25 1.843002,2.25c2.45401,0 6.141006,-0.608978 18.028,-0.608978l5.539001,0c11.680008,0 15.574005,0.608978 18.02301,0.608978c1.028,0 1.847992,-0.832001 1.847992,-2.25c0,-1.230988 -0.819992,-2.050995 -1.847992,-2.050995c-2.246002,0 -5.933014,0 -13.726013,0l0,-57.378998l48.777008,0l0,57.378998c-8.81601,0 -11.679993,0 -13.730011,0c-1.027985,0 -1.843994,0.820007 -1.843994,2.050995c0,1.417999 0.81601,2.25 1.843994,2.25c2.253021,0 5.937012,-0.608978 17.824005,-0.608978l5.738007,0c11.68399,0 15.578003,0.608978 18.039001,0.608978c0.812988,0 1.835999,-0.832001 1.835999,-2.25c0,-1.230988 -1.02301,-2.050995 -1.835999,-2.050995c-2.257996,0 -5.945007,0 -13.730011,0l0,-123.780991c7.785004,0 11.472015,0 13.730011,0c0.812988,0 1.835999,-0.809006 1.835999,-2.039001c0,-1.449005 -1.02301,-2.270004 -1.835999,-2.270004"/>
      <path fill="#131313" fill-rule="nonzero" id="path98" d="m356.875,266.85199l-20.69101,-61.481003l40.574005,0l-19.882996,61.481003zm62.304993,-109.031982c-2.460999,0 -6.153015,0.628998 -18.035004,0.628998l-5.128998,0c-11.679993,0 -15.566986,-0.628998 -17.825012,-0.628998c-1.02298,0 -1.842987,0.820999 -1.842987,2.270004c0,1.229996 0.820007,2.039001 1.842987,2.039001c2.051025,0 5.532013,0 12.5,0l-12.292999,37.921997l-43.85498,0l-12.910004,-37.921997l2.871002,0c7.781006,0 11.472992,0 13.725983,0c0.825012,0 1.848022,-0.809006 1.848022,-2.039001c0,-1.449005 -1.02301,-2.270004 -1.848022,-2.270004c-2.459991,0 -6.35498,0.628998 -18.035004,0.628998l-0.819977,0c-11.887024,0 -15.574005,-0.628998 -18.027008,-0.628998c-0.821014,0 -1.843994,0.820999 -1.843994,2.270004c0,1.229996 1.02298,2.039001 1.843994,2.039001c2.042999,0 5.117004,0 13.730011,0l1.222992,0l43.242004,128.901993c0.612976,1.027985 0.815979,1.640991 2.253998,1.640991c1.432983,0 1.847992,-0.613007 2.050995,-1.640991l41.803986,-128.901993c8.606018,0 11.274017,0 13.528015,0c0.820007,0 1.842987,-0.809006 1.842987,-2.039001c0,-1.449005 -1.02298,-2.270004 -1.842987,-2.270004"/>
      <path fill="#131313" fill-rule="nonzero" id="path100" d="m538.906006,285.910004c-2.051025,0 -4.921997,0 -13.72998,0l-1.848022,0l0,-123.371002c0,-4.089996 -1.226013,-5.729996 -2.867004,-5.729996c-2.257996,0 -3.281006,1.42099 -4.718994,4.100998l-62.089996,110.039001l0,-108.820007l1.843994,0c8.606018,0 11.684021,0 13.734009,0c0.820984,0 1.843994,-0.80899 1.843994,-2.039001c0,-1.44899 -1.02301,-2.269989 -1.843994,-2.269989c-2.459991,0 -6.156006,0.628998 -18.039001,0.628998l-0.820007,0c-11.679993,0 -15.565979,-0.628998 -18.026978,-0.628998c-0.821014,0 -1.848022,0.820999 -1.848022,2.269989c0,1.230011 1.027008,2.039001 1.848022,2.039001c2.460999,0 5.936981,0 13.72998,0l2.246002,0l0,123.781006l-2.246002,0c-7.792999,0 -11.268982,0 -13.72998,0c-0.821014,0 -1.848022,0.820007 -1.848022,2.050995c0,1.417999 1.027008,2.25 1.848022,2.25c2.460999,0 6.346985,-0.609009 18.026978,-0.609009c1.231018,0 4.10202,0.187012 5.332001,0.187012c3.074005,0 4.511993,-1.828003 7.781006,-7.570007l54.512024,-96.937988l0,100.628998l-2.051025,0c-7.781006,0 -11.471985,0 -13.725983,0c-1.028015,0 -2.04303,0.820007 -2.04303,2.050995c0,1.417999 1.015015,2.25 2.04303,2.25c2.253998,0 6.14798,-0.609009 17.832001,-0.609009l1.02301,0c11.886963,0 15.370972,0.609009 17.83197,0.609009c1.028015,0 1.835999,-0.832001 1.835999,-2.25c0,-1.230988 -0.807983,-2.050995 -1.835999,-2.050995"/>
      <path fill="#131313" fill-rule="nonzero" id="path102" d="m661.687988,285.910004c-2.046997,0 -4.917969,0 -13.72699,0l-1.848022,0l0,-123.371002c0,-4.089996 -1.22998,-5.729996 -2.870972,-5.729996c-2.257996,0 -3.281006,1.42099 -4.718994,4.100998l-62.085022,110.039001l0,-108.820007l1.843018,0c8.605957,0 11.679993,0 13.730957,0c0.820007,0 1.843018,-0.80899 1.843018,-2.039001c0,-1.44899 -1.02301,-2.269989 -1.843018,-2.269989c-2.460999,0 -6.152954,0.628998 -18.034973,0.628998l-0.825012,0c-11.674988,0 -15.562012,-0.628998 -18.02301,-0.628998c-0.820007,0 -1.847961,0.820999 -1.847961,2.269989c0,1.230011 1.027954,2.039001 1.847961,2.039001c2.460999,0 5.933044,0 13.726013,0l2.25,0l0,123.781006l-2.25,0c-7.792969,0 -11.265015,0 -13.726013,0c-0.820007,0 -1.847961,0.820007 -1.847961,2.050995c0,1.417999 1.027954,2.25 1.847961,2.25c2.460999,0 6.348022,-0.609009 18.02301,-0.609009c1.234985,0 4.106018,0.187012 5.332031,0.187012c3.078003,0 4.511963,-1.828003 7.786011,-7.570007l54.510986,-96.937988l0,100.628998l-2.051025,0c-7.784973,0 -11.471985,0 -13.72998,0c-1.02301,0 -2.039001,0.820007 -2.039001,2.050995c0,1.417999 1.015991,2.25 2.039001,2.25c2.257996,0 6.151978,-0.609009 17.83197,-0.609009l1.02301,0c11.887024,0 15.375,0.609009 17.833008,0.609009c1.015015,0 1.835022,-0.832001 1.835022,-2.25c0,-1.230988 -0.820007,-2.050995 -1.835022,-2.050995"/>
      <path fill="#131313" fill-rule="nonzero" id="path104" d="m715.409973,286.320007c-22.129028,0 -34.015015,-15.371002 -34.015015,-62.718002c0,-47.132996 11.885986,-62.5 34.015015,-62.5c22.140991,0 34.023987,15.367004 34.023987,62.5c0,47.347 -11.882996,62.718002 -34.023987,62.718002zm0,-130.139999c-27.246033,0 -49.796997,27.268997 -49.796997,67.421997c0,40.36702 22.550964,67.639999 49.796997,67.639999c27.257996,0 49.60199,-27.27301 49.60199,-67.639999c0,-40.153 -22.343994,-67.421997 -49.60199,-67.421997"/>
      <path fill="#131313" fill-rule="nonzero" id="path106" d="m882.526978,285.910004c-2.039001,0 -4.909973,0 -13.726013,0l-1.019958,0l-43.237976,-128.910004c-0.617004,-1.007996 -0.820007,-1.641006 -2.465027,-1.641006c-1.225952,0 -1.843994,0.633011 -2.050964,1.641006l-41.597046,128.910004c-8.606018,0 -11.47699,0 -13.528015,0c-0.820007,0 -1.835999,0.820007 -1.835999,2.050995c0,1.417999 1.015991,2.25 1.835999,2.25c2.460999,0 6.153015,-0.609009 18.036011,-0.609009l5.127991,0c11.47699,0 15.364014,0.609009 17.825012,0.609009c1.02301,0 1.843018,-0.832001 1.843018,-2.25c0,-1.230988 -0.820007,-2.050995 -1.843018,-2.050995c-2.257996,0 -5.531982,0 -12.707031,0l34.02301,-104.719009l35.039001,104.719009l-2.667969,0c-7.781006,0 -11.473022,0 -13.726013,0c-1.028015,0 -1.848022,0.820007 -1.848022,2.050995c0,1.417999 0.820007,2.25 1.848022,2.25c2.460022,0 6.151978,-0.609009 17.83197,-0.609009l1.02301,0c11.887024,0 15.574036,0.609009 17.820007,0.609009c1.028015,0 2.051025,-0.832001 2.051025,-2.25c0,-1.230988 -1.02301,-2.050995 -2.051025,-2.050995"/>
      <path fill="#131313" fill-rule="nonzero" id="path108" d="m961.671997,166.031006l0,-6.350998c0,-1.640991 -0.820007,-2.679993 -1.64502,-2.679993c-1.842957,0 -7.370972,0.819992 -10.448975,0.819992l-52.867004,0.628998c-11.887024,0 -15.578003,-0.628998 -18.026978,-0.628998c-1.028015,0 -1.848022,0.820999 -1.848022,2.270004c0,1.229996 0.820007,2.039001 1.848022,2.039001c2.039001,0 4.909973,0 13.717957,0l0,123.780991c-8.807983,0 -11.678955,0 -13.717957,0c-1.028015,0 -1.848022,0.820007 -1.848022,2.050995c0,1.417999 0.820007,2.25 1.848022,2.25c2.448975,0 6.139954,-0.609009 18.026978,-0.609009l48.35498,0.410004c3.079041,0 8.618042,1.019012 10.254028,1.019012c1.028015,0 1.848022,-1.019012 1.848022,-2.660004l0,-6.152008c0,-8.398987 1.015991,-22.539001 1.015991,-24.589996c0,-1.027008 -0.618042,-2.046997 -2.039001,-2.046997c-1.438049,0 -2.257996,1.019989 -2.257996,2.046997c0,17.011993 -4.715027,27.660004 -16.809021,27.660004l-30.534973,0l0,-56.55899l19.061951,0c6.551025,0 10.860046,5.539993 10.860046,16.602005c0,1.026993 0.409973,2.039001 1.432983,2.039001c1.234985,0 1.64502,-1.012009 1.64502,-2.039001c0,-1.840012 -0.207031,-5.543015 -0.207031,-19.05101c0,-13.320007 0.207031,-17.229996 0.207031,-19.062012c0,-1.028 -0.410034,-2.257996 -1.64502,-2.257996c-1.02301,0 -1.432983,1.229996 -1.432983,2.257996c0,10.863007 -4.309021,16.601013 -10.860046,16.601013l-19.061951,0l0,-61.082001l35.253967,0c12.090027,0 16.796997,10.671997 16.796997,27.671997c0,1.030991 0.820007,2.050995 2.051025,2.050995c1.432983,0 2.049988,-1.020004 2.049988,-2.050995c0,-2.05101 -1.02301,-16.180008 -1.02301,-24.378998"/>
      <path fill="#131313" fill-rule="nonzero" id="path110" d="m1006.179993,285.289001c-2.460022,0 -6.765991,0 -6.765991,0l0,-57.167999l4.925964,0c19.670044,0 30.73999,6.75 30.73999,30.527008c0,18.863983 -6.77002,26.640991 -28.899963,26.640991zm50.409973,-128.070007c-14.75,0 -18.449951,11.272995 -18.449951,35.241989c0,20.277023 -5.320068,31.141022 -22.940002,31.141022l-15.786011,0l0,-61.473007c7.795959,0 11.485962,0 13.726013,0c1.029968,0 1.849976,-0.80899 1.849976,-2.039001c0,-1.44899 -0.820007,-2.269989 -1.849976,-2.269989c-2.450012,0 -6.340027,0.628998 -18.02301,0.628998l-5.539001,0c-11.882996,0 -15.574036,-0.628998 -18.02301,-0.628998c-1.028015,0 -1.848022,0.820999 -1.848022,2.269989c0,1.230011 0.820007,2.039001 1.848022,2.039001c2.039001,0 4.909973,0 13.718018,0l0,123.781006c-8.808044,0 -11.679016,0 -13.718018,0c-1.028015,0 -1.848022,0.819977 -1.848022,2.050995c0,1.417999 0.820007,2.25 1.848022,2.25c2.448975,0 6.140015,-0.609009 18.02301,-0.609009c10.651978,0 10.451965,0.187012 18.041992,0.187012c29.300049,0 42.819946,-13.730011 42.819946,-31.551025c0,-14.546982 -11.889893,-25.608994 -23.559937,-29.096985c17.420044,-3.492996 26.02002,-17.218994 26.02002,-36.680008c0,-9.832001 -1.02002,-18.230988 -1.02002,-23.151993c0,-4.309006 1.640015,-8.617996 5.329956,-8.617996c3.280029,0 5.73999,2.257996 5.73999,6.981003c0,1.636993 1.01001,3.057999 2.660034,3.057999c1.430054,0 2.660034,-1.421005 2.660034,-2.859009c0,-6.550995 -5.530029,-10.651993 -11.680054,-10.651993"/>
     </g>
    </g>
   </g>
  </g>
 </g>
</svg>
